<?xml version="1.0" encoding="UTF-8" standalone="no"?> <svg width="64" height="64" viewBox="0 0 64 64" fill="none" xmlns="http://www.w3.org/2000/svg">
<path d="M29.9933 27.9723L25.4785 53.5773L29.4177 54.2719L33.9325 28.6669L29.9933 27.9723Z" fill="white"/>
<path d="M33.9318 28.6666L29.4169 54.2716L33.3561 54.9662L37.871 29.3612L33.9318 28.6666Z" fill="#CFF09E"/>
<path d="M22.288 25.6L21.767 28.554C22.6108 28.7029 23.4803 28.5654 24.237 28.1634C24.9937 27.7613 25.5942 27.1177 25.943 26.335L26.401 25.31L28.37 25.657L29.993 27.974L37.871 29.363L40.188 27.741L42.158 28.088L42.237 29.208C42.2974 30.0622 42.6415 30.8716 43.2146 31.5079C43.7876 32.1442 44.5568 32.5708 45.4 32.72L45.921 29.765C46.1512 28.4591 45.8532 27.1152 45.0925 26.029C44.3319 24.9428 43.1709 24.2032 41.865 23.973L28.08 21.542C27.4332 21.428 26.7703 21.4426 26.1292 21.5849C25.4881 21.7272 24.8812 21.9944 24.3434 22.3712C23.8055 22.748 23.3472 23.2271 22.9945 23.7811C22.6418 24.3351 22.4018 24.9532 22.288 25.6V25.6Z" fill="#79BD9A"/>
<path d="M36.4227 26.0596C36.7104 24.4279 36.0618 22.9497 34.974 22.7578C33.8862 22.566 32.7712 23.7333 32.4835 25.365C32.1958 26.9967 32.8444 28.4749 33.9321 28.6667C35.0199 28.8585 36.135 27.6912 36.4227 26.0596Z" fill="white"/>
<path d="M35.89 27.5C35.7193 27.8698 35.4408 28.1794 35.091 28.3882C34.7412 28.597 34.3366 28.6952 33.93 28.67C32.84 28.47 32.2 27 32.48 25.36C32.5409 24.87 32.7086 24.3993 32.9712 23.9812C33.2339 23.563 33.585 23.2076 34 22.94C33.7452 23.3794 33.5692 23.86 33.48 24.36C33.2 26 33.84 27.47 34.93 27.67C35.26 27.7242 35.5987 27.6642 35.89 27.5V27.5Z" fill="#CFF09E"/>
<path d="M39.201 10.302L35.262 9.608L32.019 22.237L37.928 23.279L39.201 10.302Z" fill="#A8DBA8"/>
<path d="M34.015 14.465L33.017 18.351L38.32 19.286L38.711 15.293L34.015 14.465Z" fill="#79BD9A"/>
<path d="M41.691 7.6958C42.0746 5.52022 40.6219 3.44559 38.4463 3.06198C36.2708 2.67837 34.1961 4.13104 33.8125 6.30662C33.4289 8.48219 34.8816 10.5568 37.0572 10.9404C39.2327 11.3241 41.3074 9.87138 41.691 7.6958Z" fill="white"/>
<path d="M41.54 8.29001C41.3205 8.93334 40.9406 9.51012 40.4363 9.96589C39.932 10.4217 39.3198 10.7414 38.6576 10.8949C37.9954 11.0484 37.305 11.0306 36.6516 10.8432C35.9982 10.6558 35.4033 10.305 34.9231 9.82385C34.4429 9.34271 34.0933 8.74714 33.9072 8.09336C33.7211 7.43958 33.7046 6.74915 33.8594 6.08725C34.0143 5.42536 34.3352 4.81384 34.7919 4.31041C35.2487 3.80698 35.8262 3.42827 36.47 3.21001C36.4003 3.40527 36.3467 3.60595 36.31 3.81001C36.2093 4.38496 36.2357 4.97497 36.3872 5.53865C36.5388 6.10233 36.8119 6.62601 37.1873 7.07293C37.5628 7.51985 38.0315 7.87919 38.5606 8.12572C39.0897 8.37225 39.6663 8.5 40.25 8.50001C40.6883 8.49692 41.1234 8.42609 41.54 8.29001Z" fill="#CFF09E"/>
<path d="M61 59V61H3V58L13 56L15 52H21L22 48L25 43L30 45H37L39 48L45 49L47 53L55 54V57L61 59Z" fill="white"/>
<path d="M61 59V61H3V58L13 56L15 52H21L22 48L26 47L28 49L34 48L38 51L42 50L47 53L55 54V57L61 59Z" fill="#CFF09E"/>
<path d="M34 58L40 52L47 53L55 54V57L61 59V61H34V58Z" fill="#A8DBA8"/>
<path d="M40 61H3V58L13 56L15 52H26L29 54L30 57H35L40 61Z" fill="white"/>
<path d="M59 46H61C61 47.0609 60.5786 48.0783 59.8284 48.8284C59.0783 49.5786 58.0609 50 57 50H55C55 48.9391 55.4214 47.9217 56.1716 47.1716C56.9217 46.4214 57.9391 46 59 46V46Z" fill="#79BD9A"/>
<path d="M55 50H53C51.9391 50 50.9217 49.5786 50.1716 48.8284C49.4214 48.0783 49 47.0609 49 46H51C52.0609 46 53.0783 46.4214 53.8284 47.1716C54.5786 47.9217 55 48.9391 55 50Z" fill="#79BD9A"/>
<path d="M50 39H52C52 40.0609 51.5786 41.0783 50.8284 41.8284C50.0783 42.5786 49.0609 43 48 43H46C46 41.9391 46.4214 40.9217 47.1716 40.1716C47.9217 39.4214 48.9391 39 50 39V39Z" fill="#79BD9A"/>
<path d="M46 43H44C42.9391 43 41.9217 42.5786 41.1716 41.8284C40.4214 41.0783 40 40.0609 40 39H42C43.0609 39 44.0783 39.4214 44.8284 40.1716C45.5786 40.9217 46 41.9391 46 43Z" fill="#79BD9A"/>
<path d="M16 41H18C18 42.0609 17.5786 43.0783 16.8284 43.8284C16.0783 44.5786 15.0609 45 14 45H12C12 43.9391 12.4214 42.9217 13.1716 42.1716C13.9217 41.4214 14.9391 41 16 41V41Z" fill="#79BD9A"/>
<path d="M34 50H36C36 51.0609 35.5786 52.0783 34.8284 52.8284C34.0783 53.5786 33.0609 54 32 54H30C30 52.9391 30.4214 51.9217 31.1716 51.1716C31.9217 50.4214 32.9391 50 34 50V50Z" fill="#79BD9A"/>
<path d="M12 45H10C8.93913 45 7.92172 44.5786 7.17157 43.8284C6.42143 43.0783 6 42.0609 6 41H8C9.06087 41 10.0783 41.4214 10.8284 42.1716C11.5786 42.9217 12 43.9391 12 45Z" fill="#79BD9A"/>
<path d="M9 54H7C5.93913 54 4.92172 53.5786 4.17157 52.8284C3.42143 52.0783 3 51.0609 3 50H5C6.06087 50 7.07828 50.4214 7.82843 51.1716C8.57857 51.9217 9 52.9391 9 54Z" fill="#79BD9A"/>
<path d="M40 61H3V58L13 56L17 54H24L25 58L29 59L33 58L40 61Z" fill="#CFF09E"/>
<path d="M37.722 7.348C37.9168 7.3824 38.1174 7.35825 38.2985 7.27861C38.4796 7.19897 38.6329 7.06742 38.7392 6.9006C38.8455 6.73377 38.9 6.53917 38.8956 6.34141C38.8913 6.14365 38.8285 5.95161 38.715 5.78958C38.6015 5.62756 38.4425 5.50283 38.2582 5.43116C38.0738 5.3595 37.8723 5.34413 37.6792 5.387C37.4861 5.42986 37.31 5.52903 37.1733 5.67197C37.0365 5.8149 36.9453 5.99518 36.911 6.19C36.8651 6.4511 36.9247 6.71974 37.0768 6.93689C37.2289 7.15403 37.4609 7.30191 37.722 7.348Z" fill="#3B8686"/>
<path d="M61.316 58.051L56 56.279V51H57C58.3256 50.9984 59.5964 50.4711 60.5338 49.5338C61.4711 48.5964 61.9984 47.3256 62 46C62 45.7348 61.8946 45.4804 61.7071 45.2929C61.5196 45.1054 61.2652 45 61 45H59C58.2209 45.0022 57.4531 45.1871 56.7584 45.5398C56.0638 45.8925 55.4615 46.4033 55 47.031C54.5385 46.4033 53.9362 45.8925 53.2415 45.5398C52.5468 45.1871 51.7791 45.0022 51 45H49C48.7348 45 48.4804 45.1054 48.2929 45.2929C48.1053 45.4804 48 45.7348 48 46C48.0016 47.3256 48.5289 48.5964 49.4662 49.5338C50.4035 50.4711 51.6744 50.9984 53 51H54V52.867L47.655 52.074L45.9 48.553C45.8294 48.412 45.7265 48.2896 45.5996 48.1959C45.4728 48.1023 45.3255 48.0399 45.17 48.014L43.739 47.775C45.1451 46.9135 46.1925 45.5728 46.688 44H48C49.3256 43.9984 50.5964 43.4711 51.5338 42.5338C52.4711 41.5964 52.9984 40.3256 53 39C53 38.7348 52.8946 38.4804 52.7071 38.2929C52.5196 38.1054 52.2652 38 52 38H50C49.2209 38.0022 48.4531 38.1871 47.7584 38.5398C47.0638 38.8925 46.4615 39.4033 46 40.031C45.5385 39.4033 44.9362 38.8925 44.2415 38.5398C43.5468 38.1871 42.7791 38.0022 42 38H40C39.7348 38 39.4804 38.1054 39.2929 38.2929C39.1053 38.4804 39 38.7348 39 39C39.0016 40.3256 39.5289 41.5964 40.4662 42.5338C41.4035 43.4711 42.6744 43.9984 44 44H44.535C44.2031 44.7179 43.698 45.342 43.065 45.8163C42.4321 46.2906 41.6912 46.6001 40.909 46.717L39.483 46.917L37.832 44.441C37.7402 44.3048 37.6162 44.1934 37.4711 44.1164C37.326 44.0395 37.1642 43.9995 37 44H36.3L38.779 29.943L40.422 28.8L41.215 28.94L41.239 29.282C41.3141 30.3596 41.7478 31.3811 42.4709 32.1836C43.194 32.9861 44.165 33.5235 45.229 33.71C45.2865 33.7199 45.3447 33.7249 45.403 33.725C45.6379 33.7248 45.8652 33.642 46.0452 33.4909C46.2251 33.3399 46.3461 33.1303 46.387 32.899L46.908 29.944C47.0448 29.168 47.0275 28.3727 46.857 27.6034C46.6865 26.8341 46.3661 26.1059 45.9141 25.4605C45.4622 24.815 44.8875 24.2649 44.223 23.8415C43.5584 23.4181 42.817 23.1298 42.041 22.993L39.014 22.459L40.1 11.406C41.0186 10.9182 41.7619 10.1558 42.2263 9.22518C42.6907 8.29456 42.853 7.24216 42.6904 6.21488C42.5279 5.1876 42.0487 4.2367 41.3197 3.49489C40.5907 2.75308 39.6483 2.25739 38.624 2.077V2.077C37.6501 1.90526 36.6471 2.02618 35.742 2.42446C34.8368 2.82274 34.0701 3.4805 33.5387 4.31455C33.0074 5.1486 32.7353 6.12148 32.7569 7.11017C32.7785 8.09885 33.0927 9.05893 33.66 9.869C33.7808 10.028 33.911 10.1796 34.05 10.323L31.281 21.091L28.254 20.557C26.6867 20.2827 25.0747 20.641 23.7712 21.5534C22.4676 22.4657 21.579 23.8576 21.3 25.424V25.424L20.779 28.379C20.7331 28.6401 20.7927 28.9087 20.9448 29.1259C21.0968 29.343 21.3289 29.4909 21.59 29.537C22.6539 29.7246 23.75 29.5509 24.7037 29.0435C25.6575 28.536 26.4141 27.7241 26.853 26.737L26.993 26.424L27.786 26.564L28.933 28.202L26.417 42.49L25.372 42.071C25.1513 41.9827 24.9065 41.9759 24.6813 42.0518C24.4561 42.1276 24.2652 42.2812 24.143 42.485L21.143 47.485C21.0922 47.5697 21.0542 47.6613 21.03 47.757L20.219 51H15.441C14.1619 49.615 13.3419 47.8688 13.093 46H14C15.3256 45.9984 16.5964 45.4711 17.5338 44.5338C18.4711 43.5964 18.9984 42.3256 19 41C19 40.7348 18.8946 40.4804 18.7071 40.2929C18.5196 40.1054 18.2652 40 18 40H16C15.2209 40.0022 14.4531 40.1871 13.7584 40.5398C13.0638 40.8925 12.4615 41.4033 12 42.031C11.5385 41.4033 10.9362 40.8925 10.2415 40.5398C9.54683 40.1871 8.77909 40.0022 7.99999 40H5.99999C5.73477 40 5.48042 40.1054 5.29288 40.2929C5.10534 40.4804 4.99999 40.7348 4.99999 41C5.00157 42.3256 5.52887 43.5964 6.46621 44.5338C7.40354 45.4711 8.67439 45.9984 9.99999 46H11.074C11.3244 48.2856 12.2767 50.4376 13.8 52.16L12.322 55.115L9.99999 55.58V54C9.9984 52.6744 9.4711 51.4036 8.53377 50.4662C7.59643 49.5289 6.32558 49.0016 4.99999 49H2.99999C2.73477 49 2.48042 49.1054 2.29288 49.2929C2.10534 49.4804 1.99999 49.7348 1.99999 50C2.00157 51.3256 2.52887 52.5964 3.46621 53.5338C4.40354 54.4711 5.67439 54.9984 6.99999 55H7.99999V55.98L2.79999 57.02C2.67129 57.0463 2.54903 57.0976 2.44018 57.1711C2.33133 57.2446 2.23803 57.3389 2.1656 57.4485C2.09317 57.558 2.04303 57.6808 2.01805 57.8097C1.99306 57.9387 1.99372 58.0713 2.01999 58.2C2.04625 58.3287 2.09761 58.451 2.17112 58.5598C2.24464 58.6687 2.33887 58.762 2.44844 58.8344C2.55802 58.9068 2.68078 58.9569 2.80973 58.9819C2.93868 59.0069 3.07129 59.0063 3.19999 58.98L13 57.02L17.8 57.98C17.8657 57.9939 17.9328 58.0006 18 58C18.1074 58.0001 18.2141 57.9829 18.316 57.949L21.316 56.949C21.4407 56.9075 21.5561 56.8418 21.6555 56.7558C21.7549 56.6697 21.8363 56.5649 21.8952 56.4473C21.9541 56.3297 21.9892 56.2017 21.9986 56.0706C22.008 55.9395 21.9915 55.8078 21.95 55.683C21.9085 55.5582 21.8428 55.4429 21.7567 55.3435C21.6707 55.2441 21.5659 55.1627 21.4483 55.1038C21.3307 55.0449 21.2027 55.0098 21.0716 55.0004C20.9405 54.991 20.8087 55.0075 20.684 55.049L17.936 55.965L14.48 55.274L15.618 53H25.7L28.163 54.642L29.054 57.316C29.1202 57.5147 29.2471 57.6876 29.4168 57.8104C29.5866 57.9331 29.7905 57.9994 30 58H34.649L39.375 61.781C39.4775 61.8631 39.5953 61.9242 39.7214 61.9608C39.8476 61.9974 39.9797 62.0088 40.1103 61.9943C40.2409 61.9798 40.3673 61.9397 40.4824 61.8764C40.5975 61.813 40.6989 61.7276 40.781 61.625C40.8789 61.4993 40.9448 61.3518 40.973 61.195C41.0012 61.0382 40.9909 60.8769 40.943 60.725L44.243 58.089L47.762 58.969C48.0185 59.0313 48.2893 58.9897 48.5152 58.8532C48.7411 58.7166 48.9039 58.4963 48.9681 58.2403C49.0322 57.9842 48.9925 57.7132 48.8576 57.4862C48.7227 57.2593 48.5036 57.095 48.248 57.029L44.248 56.029C44.0985 55.9921 43.9425 55.99 43.792 56.0227C43.6416 56.0555 43.5006 56.1223 43.38 56.218L39.5 59.32L36.5 56.92L40.357 53.064L46.879 53.995L54 54.883V57C53.9999 57.21 54.066 57.4146 54.1887 57.5849C54.3115 57.7553 54.4848 57.8826 54.684 57.949L60 59.721V61C60 61.2652 60.1053 61.5196 60.2929 61.7071C60.4804 61.8946 60.7348 62 61 62C61.2652 62 61.5196 61.8946 61.7071 61.7071C61.8946 61.5196 62 61.2652 62 61V59C62 58.79 61.934 58.5854 61.8112 58.415C61.6885 58.2447 61.5152 58.1173 61.316 58.051ZM50 40H50.829C50.6214 40.5845 50.2381 41.0905 49.7316 41.4486C49.2251 41.8066 48.6203 41.9992 48 42H47.171C47.3786 41.4155 47.7619 40.9095 48.2684 40.5514C48.7749 40.1934 49.3797 40.0008 50 40ZM41.171 40H42C42.6203 40.0008 43.2251 40.1934 43.7316 40.5514C44.2381 40.9095 44.6214 41.4155 44.829 42H44C43.3797 41.9992 42.7749 41.8066 42.2684 41.4486C41.7619 41.0905 41.3786 40.5845 41.171 40V40ZM6.99999 53C6.37971 52.9992 5.77486 52.8066 5.26837 52.4486C4.76189 52.0905 4.37857 51.5845 4.17099 51H4.99999C5.62026 51.0008 6.22511 51.1934 6.7316 51.5514C7.23809 51.9095 7.6214 52.4155 7.82899 53H6.99999ZM32.244 44L34.744 29.825L36.714 30.172L34.274 44H32.244ZM33.607 27.154C33.4204 26.6369 33.3724 26.0799 33.4679 25.5385C33.5633 24.9971 33.7988 24.4901 34.151 24.068C34.298 23.8864 34.5093 23.7683 34.741 23.738C34.7606 23.736 34.7804 23.736 34.8 23.738C34.981 23.769 35.167 23.967 35.3 24.265C35.4992 24.7791 35.5478 25.3393 35.44 25.88C35.3564 26.4251 35.1191 26.935 34.756 27.35C34.6804 27.4504 34.5827 27.532 34.4705 27.5885C34.3583 27.6451 34.2346 27.675 34.109 27.676V27.676C33.924 27.649 33.738 27.452 33.607 27.154ZM44.276 26.6C44.5786 27.0296 44.793 27.5151 44.9066 28.0281C45.0202 28.5412 45.0309 29.0718 44.938 29.589L44.623 31.38C44.2267 31.1461 43.8932 30.8193 43.6512 30.4279C43.4092 30.0365 43.2661 29.5921 43.234 29.133L43.155 28.013C43.1394 27.7904 43.0498 27.5794 42.9005 27.4136C42.7512 27.2478 42.5507 27.1367 42.331 27.098L40.361 26.751C40.1 26.7054 39.8315 26.7647 39.614 26.916L37.637 28.3L36.668 28.129C37.0368 27.5502 37.288 26.9045 37.4071 26.2286C37.5261 25.5527 37.5108 24.86 37.362 24.19L41.693 24.954C42.211 25.044 42.7059 25.2358 43.1493 25.5184C43.5927 25.8009 43.9756 26.1685 44.276 26.6ZM37.43 18.11L34.254 17.551L34.754 15.608L37.627 16.114L37.43 18.11ZM37.822 14.118L35.252 13.665L35.787 11.583C36.4085 11.8608 37.0822 12.003 37.763 12C37.853 12 37.942 11.984 38.032 11.979L37.822 14.118ZM34.8 6.479C34.9222 5.78584 35.2843 5.15773 35.8228 4.70455C36.3614 4.25136 37.0421 4.00197 37.746 4C37.9227 4 38.099 4.0154 38.273 4.046V4.046C38.8575 4.14862 39.3985 4.4223 39.8275 4.83243C40.2564 5.24257 40.5541 5.77071 40.6828 6.35006C40.8116 6.92941 40.7656 7.53392 40.5507 8.08712C40.3358 8.64033 39.9616 9.11736 39.4755 9.45787C38.9895 9.79839 38.4133 9.98709 37.82 10.0001C37.2267 10.0131 36.6428 9.84982 36.1423 9.53093C35.6417 9.21204 35.2471 8.75186 35.0081 8.2086C34.7692 7.66535 34.6968 7.06343 34.8 6.479V6.479ZM33.756 19.5L37.234 20.113L37.034 22.113L33.252 21.446L33.756 19.5ZM26.575 24.326C26.3554 24.2872 26.1292 24.3229 25.9322 24.4275C25.7353 24.532 25.5789 24.6994 25.488 24.903L25.03 25.929C24.843 26.3494 24.5566 26.7181 24.1955 27.0033C23.8343 27.2884 23.4093 27.4816 22.957 27.566L23.272 25.774C23.4564 24.7293 24.0481 23.8007 24.9172 23.1923C25.7862 22.584 26.8613 22.3457 27.906 22.53L32.238 23.294C31.4918 24.4619 31.24 25.8784 31.538 27.232L30.569 27.062L29.184 25.084C29.0319 24.8669 28.8 24.7191 28.539 24.673L26.575 24.326ZM30.8 29.13L32.769 29.477L30.213 44H30.192L28.315 43.249L30.8 29.13ZM16 42H16.829C16.6214 42.5845 16.2381 43.0905 15.7316 43.4486C15.2251 43.8066 14.6203 43.9992 14 44H13.171C13.3786 43.4155 13.7619 42.9095 14.2684 42.5514C14.7749 42.1934 15.3797 42.0008 16 42V42ZM9.99999 44C9.37971 43.9992 8.77486 43.8066 8.26837 43.4486C7.76189 43.0905 7.37857 42.5845 7.17099 42H7.99999C8.62026 42.0008 9.22511 42.1934 9.7316 42.5514C10.2381 42.9095 10.6214 43.4155 10.829 44H9.99999ZM40.142 51.01C39.9882 50.9869 39.8311 51.0006 39.6836 51.0497C39.536 51.0989 39.4022 51.1823 39.293 51.293L34.586 56H30.721L30.387 55H32C33.3256 54.9984 34.5964 54.4711 35.5338 53.5338C36.4711 52.5964 36.9984 51.3256 37 50C37 49.7348 36.8946 49.4804 36.7071 49.2929C36.5196 49.1054 36.2652 49 36 49H34C32.8688 49.0022 31.7719 49.3879 30.8883 50.0941C30.0046 50.8003 29.3866 51.7852 29.135 52.888L26.555 51.168C26.3905 51.0587 26.1975 51.0003 26 51H22.281L22.825 48.825L25.693 48.107L27.293 49.707C27.4816 49.8892 27.7342 49.9899 27.9964 49.9877C28.2586 49.9854 28.5094 49.8802 28.6948 49.6948C28.8802 49.5094 28.9854 49.2586 28.9877 48.9964C28.9899 48.7342 28.8891 48.4816 28.707 48.293L26.707 46.293C26.5848 46.1708 26.4331 46.0824 26.2666 46.0363C26.1002 45.9902 25.9246 45.988 25.757 46.03L24.1 46.444L25.419 44.244L29.628 45.928C29.7463 45.9752 29.8726 45.9996 30 46H36.465L38.165 48.555C38.2408 48.6686 38.3391 48.7654 38.4539 48.8395C38.5686 48.9137 38.6973 48.9635 38.832 48.986L44.332 49.903L45.251 51.74L40.142 51.01ZM31.171 53C31.3786 52.4155 31.7619 51.9095 32.2684 51.5514C32.7749 51.1934 33.3797 51.0008 34 51H34.829C34.6214 51.5845 34.2381 52.0905 33.7316 52.4486C33.2251 52.8066 32.6203 52.9992 32 53H31.171ZM59 47H59.829C59.6214 47.5845 59.2381 48.0905 58.7316 48.4486C58.2251 48.8066 57.6203 48.9992 57 49H56.171C56.3786 48.4155 56.7619 47.9095 57.2684 47.5514C57.7749 47.1934 58.3797 47.0008 59 47V47ZM53 49C52.3797 48.9992 51.7749 48.8066 51.2684 48.4486C50.7619 48.0905 50.3786 47.5845 50.171 47H51C51.6203 47.0008 52.2251 47.1934 52.7316 47.5514C53.2381 47.9095 53.6214 48.4155 53.829 49H53Z" fill="#3B8686"/>
</svg>
