<?xml version="1.0" encoding="UTF-8" standalone="no"?> <svg width="64" height="64" viewBox="0 0 64 64" fill="none" xmlns="http://www.w3.org/2000/svg">
<path d="M42.2 49.794V35.773C42.2 25.904 34.526 17.499 24.664 17.148C22.2196 17.0588 19.7824 17.4631 17.4978 18.337C15.2133 19.2108 13.1283 20.5362 11.3675 22.2339C9.60669 23.9316 8.20615 25.9669 7.24955 28.218C6.29296 30.4692 5.79994 32.89 5.79995 35.336V49.794C5.7999 50.3259 5.67284 50.8502 5.42933 51.3231C5.18582 51.796 4.83291 52.204 4.39995 52.513V52.513C3.88696 52.8793 3.48802 53.3832 3.2492 53.9666C3.01038 54.55 2.94142 55.189 3.05026 55.8099C3.15911 56.4307 3.44134 57.0082 3.86436 57.4755C4.28738 57.9429 4.83394 58.281 5.44095 58.451V58.451C17.5792 61.85 30.4177 61.85 42.556 58.451V58.451C43.1629 58.2813 43.7096 57.9434 44.1327 57.4763C44.5559 57.0092 44.8383 56.432 44.9475 55.8112C45.0566 55.1905 44.9881 54.5516 44.7496 53.9681C44.5112 53.3847 44.1126 52.8806 43.6 52.514V52.514C43.1669 52.2049 42.8139 51.7968 42.5704 51.3236C42.3268 50.8505 42.1998 50.3261 42.2 49.794V49.794Z" fill="#EDB88E"/>
<path d="M44.9999 55.21C45.0075 55.9435 44.7723 56.659 44.331 57.245C43.8897 57.831 43.267 58.2546 42.5599 58.45C36.5184 60.1418 30.2739 60.9997 23.9999 61C17.726 60.9997 11.4815 60.1418 5.43993 58.45C4.83305 58.2795 4.28671 57.941 3.86392 57.4734C3.44114 57.0058 3.15913 56.4283 3.05041 55.8073C2.9417 55.1864 3.01071 54.5474 3.24948 53.964C3.48825 53.3806 3.88707 52.8765 4.39993 52.51C4.83381 52.2016 5.18738 51.7937 5.43098 51.3204C5.67459 50.8471 5.80111 50.3223 5.79993 49.79V35.34C5.79799 32.5188 6.45195 29.7357 7.71017 27.2106C8.9684 24.6854 10.7964 22.4874 13.0499 20.79C13.7999 30.96 23.3399 39 34.9999 39C37.4397 39.0019 39.8662 38.6412 42.1999 37.93V49.79C42.1988 50.3223 42.3253 50.8471 42.5689 51.3204C42.8125 51.7937 43.1661 52.2016 43.5999 52.51C44.0331 52.8144 44.3865 53.2188 44.6302 53.6888C44.8739 54.1588 45.0007 54.6806 44.9999 55.21V55.21Z" fill="#DA9367"/>
<path d="M23.9999 21C22.8718 21.0001 21.7728 20.6418 20.8616 19.9768C19.9503 19.3117 19.2739 18.3744 18.9299 17.3L15.9299 7.913C15.6875 7.1553 15.6923 6.34015 15.9435 5.58533C16.1947 4.8305 16.6795 4.17511 17.3276 3.71384C17.9758 3.25257 18.7538 3.00932 19.5493 3.01924C20.3447 3.02915 21.1165 3.29172 21.7529 3.769V3.769C22.4022 4.25537 23.1917 4.51825 24.0029 4.51825C24.8142 4.51825 25.6036 4.25537 26.2529 3.769V3.769C26.8894 3.29172 27.6611 3.02915 28.4566 3.01924C29.2521 3.00932 30.0301 3.25257 30.6782 3.71384C31.3264 4.17511 31.8111 4.8305 32.0624 5.58533C32.3136 6.34015 32.3184 7.1553 32.0759 7.913L29.0759 17.3C28.7317 18.3754 28.0543 19.3134 27.1419 19.9785C26.2294 20.6436 25.1291 21.0014 23.9999 21V21Z" fill="#EDB88E"/>
<path d="M30.13 13.99L29.07 17.3C28.7257 18.3742 28.0492 19.3112 27.138 19.9761C26.2268 20.6409 25.1279 20.9992 24 20.9992C22.872 20.9992 21.7732 20.6409 20.8619 19.9761C19.9507 19.3112 19.2742 18.3742 18.93 17.3L15.93 7.91C15.753 7.36473 15.7035 6.78613 15.7851 6.21871C15.8668 5.65129 16.0775 5.11015 16.401 4.63691C16.7246 4.16367 17.1523 3.77093 17.6514 3.48889C18.1505 3.20685 18.7076 3.04302 19.28 3.01L21.93 11.3C22.2746 12.374 22.9512 13.3109 23.8623 13.9758C24.7734 14.6407 25.872 14.9993 27 15C28.1228 14.9963 29.2167 14.6433 30.13 13.99V13.99Z" fill="#DA9367"/>
<path d="M30.1249 20.5C28.2598 21.5661 26.1487 22.1268 24.0004 22.1268C21.8521 22.1268 19.7411 21.5661 17.8759 20.5V20.5C17.6099 20.3482 17.3888 20.1287 17.235 19.8639C17.0811 19.5991 17 19.2983 16.9999 18.992V18.992C16.9998 18.6876 17.0797 18.3885 17.2317 18.1247C17.3836 17.8609 17.6021 17.6416 17.8655 17.4889C18.1288 17.3362 18.4276 17.2553 18.732 17.2545C19.0365 17.2536 19.3358 17.3328 19.5999 17.484V17.484C20.9401 18.2492 22.4567 18.6516 23.9999 18.6516C25.5432 18.6516 27.0598 18.2492 28.3999 17.484V17.484C28.6641 17.3324 28.9634 17.253 29.268 17.2537C29.5725 17.2544 29.8715 17.3352 30.1349 17.488C30.3984 17.6408 30.617 17.8602 30.7688 18.1242C30.9206 18.3882 31.0003 18.6875 30.9999 18.992V18.992C30.9999 19.2982 30.919 19.5989 30.7653 19.8637C30.6117 20.1286 30.3908 20.3481 30.1249 20.5V20.5Z" fill="#FCEA42"/>
<path d="M30.9999 18.99C31.0014 19.2961 30.9216 19.5972 30.7688 19.8625C30.616 20.1277 30.3955 20.3477 30.1299 20.5C28.2648 21.5665 26.1535 22.1276 24.0049 22.1276C21.8564 22.1276 19.7451 21.5665 17.8799 20.5H17.8699C17.6043 20.3477 17.3839 20.1277 17.231 19.8625C17.0782 19.5972 16.9985 19.2961 16.9999 18.99C16.9971 18.6311 17.1092 18.2806 17.3199 17.99C17.4625 18.1993 17.6505 18.3736 17.8699 18.5H17.8799C19.7451 19.5665 21.8564 20.1276 24.0049 20.1276C26.1535 20.1276 28.2648 19.5665 30.1299 18.5C30.3494 18.3736 30.5374 18.1993 30.6799 17.99C30.8906 18.2806 31.0028 18.6311 30.9999 18.99V18.99Z" fill="#FDC741"/>
<path d="M55.9999 37H43.9999C42.8954 37 41.9999 37.8954 41.9999 39V41C41.9999 42.1046 42.8954 43 43.9999 43H55.9999C57.1045 43 57.9999 42.1046 57.9999 41V39C57.9999 37.8954 57.1045 37 55.9999 37Z" fill="#FCEA42"/>
<path d="M40.7475 30.9377L30.8304 37.6943C29.9176 38.3162 29.6817 39.5604 30.3037 40.4732L31.4298 42.126C32.0517 43.0389 33.2959 43.2747 34.2087 42.6528L44.1258 35.8962C45.0386 35.2743 45.2744 34.0301 44.6525 33.1172L43.5264 31.4644C42.9045 30.5516 41.6603 30.3157 40.7475 30.9377Z" fill="#FCEA42"/>
<path d="M52.9999 37C57.4182 37 60.9999 33.4183 60.9999 29C60.9999 24.5817 57.4182 21 52.9999 21C48.5817 21 44.9999 24.5817 44.9999 29C44.9999 33.4183 48.5817 37 52.9999 37Z" fill="#FCEA42"/>
<path d="M60.6899 31.19C60.3093 32.5314 59.5847 33.75 58.588 34.725C57.5912 35.7 56.3569 36.3976 55.0075 36.7486C53.6581 37.0995 52.2403 37.0917 50.8949 36.7259C49.5494 36.3601 48.3229 35.6489 47.3369 34.663C46.351 33.6771 45.6398 32.4506 45.274 31.1051C44.9082 29.7596 44.9004 28.3419 45.2514 26.9924C45.6023 25.643 46.2999 24.4087 47.2749 23.412C48.25 22.4152 49.4686 21.6906 50.8099 21.31C50.4163 22.6806 50.3969 24.1316 50.7537 25.5123C51.1105 26.8929 51.8304 28.1528 52.8388 29.1612C53.8471 30.1695 55.107 30.8895 56.4877 31.2462C57.8683 31.603 59.3193 31.5836 60.6899 31.19V31.19Z" fill="#FDC741"/>
<path d="M52.9999 33C55.2091 33 56.9999 31.2091 56.9999 29C56.9999 26.7909 55.2091 25 52.9999 25C50.7908 25 48.9999 26.7909 48.9999 29C48.9999 31.2091 50.7908 33 52.9999 33Z" fill="#FDC741"/>
<path d="M56.34 31.2C56.0136 31.6962 55.5809 32.1135 55.0731 32.4216C54.5654 32.7297 53.9954 32.9209 53.4046 32.9812C52.8137 33.0416 52.2169 32.9696 51.6573 32.7705C51.0978 32.5715 50.5896 32.2503 50.1696 31.8304C49.7497 31.4104 49.4285 30.9022 49.2294 30.3427C49.0304 29.7831 48.9584 29.1862 49.0188 28.5954C49.0791 28.0046 49.2703 27.4346 49.5784 26.9269C49.8865 26.4191 50.3038 25.9864 50.8 25.66C51.1684 26.9822 51.8719 28.187 52.8425 29.1575C53.813 30.1281 55.0177 30.8316 56.34 31.2V31.2Z" fill="#EFAD1B"/>
<path d="M57.9999 40V41C57.9984 41.5299 57.7871 42.0377 57.4124 42.4125C57.0377 42.7872 56.5299 42.9984 55.9999 43H43.9999C43.47 42.9984 42.9622 42.7872 42.5875 42.4125C42.2127 42.0377 42.0015 41.5299 41.9999 41V39C42.0015 38.4701 42.2127 37.9623 42.5875 37.5875C42.9622 37.2128 43.47 37.0016 43.9999 37H45.9999V38C46.0015 38.5299 46.2127 39.0377 46.5875 39.4125C46.9622 39.7872 47.47 39.9984 47.9999 40H57.9999Z" fill="#FDC741"/>
<path d="M53.9999 43H41.9999C40.8954 43 39.9999 43.8954 39.9999 45V47C39.9999 48.1046 40.8954 49 41.9999 49H53.9999C55.1045 49 55.9999 48.1046 55.9999 47V45C55.9999 43.8954 55.1045 43 53.9999 43Z" fill="#FCEA42"/>
<path d="M55.9999 46V47C55.9984 47.5299 55.7871 48.0377 55.4124 48.4125C55.0377 48.7872 54.5299 48.9984 53.9999 49H41.9999C41.47 48.9984 40.9622 48.7872 40.5875 48.4125C40.2127 48.0377 40.0015 47.5299 39.9999 47V45C40.0015 44.4701 40.2127 43.9623 40.5875 43.5875C40.9622 43.2128 41.47 43.0016 41.9999 43H43.9999V44C44.0015 44.5299 44.2127 45.0377 44.5875 45.4125C44.9622 45.7872 45.47 45.9984 45.9999 46H55.9999Z" fill="#FDC741"/>
<path d="M37.9999 43H25.9999C24.8954 43 23.9999 43.8954 23.9999 45V47C23.9999 48.1046 24.8954 49 25.9999 49H37.9999C39.1045 49 39.9999 48.1046 39.9999 47V45C39.9999 43.8954 39.1045 43 37.9999 43Z" fill="#FCEA42"/>
<path d="M39.9999 46V47C39.9984 47.5299 39.7871 48.0377 39.4124 48.4125C39.0377 48.7872 38.5299 48.9984 37.9999 49H25.9999C25.47 48.9984 24.9622 48.7872 24.5875 48.4125C24.2127 48.0377 24.0015 47.5299 23.9999 47V45C24.0015 44.4701 24.2127 43.9623 24.5875 43.5875C24.9622 43.2128 25.47 43.0016 25.9999 43H27.9999V44C28.0015 44.5299 28.2127 45.0377 28.5875 45.4125C28.9622 45.7872 29.47 45.9984 29.9999 46H39.9999Z" fill="#FDC741"/>
<path d="M58.9999 49H46.9999C45.8954 49 44.9999 49.8954 44.9999 51V53C44.9999 54.1046 45.8954 55 46.9999 55H58.9999C60.1045 55 60.9999 54.1046 60.9999 53V51C60.9999 49.8954 60.1045 49 58.9999 49Z" fill="#FCEA42"/>
<path d="M60.9999 52V53C60.9984 53.5299 60.7871 54.0377 60.4124 54.4125C60.0377 54.7872 59.5299 54.9984 58.9999 55H46.9999C46.47 54.9984 45.9622 54.7872 45.5875 54.4125C45.2127 54.0377 45.0015 53.5299 44.9999 53V51C45.0015 50.4701 45.2127 49.9623 45.5875 49.5875C45.9622 49.2128 46.47 49.0016 46.9999 49H48.9999V50C49.0015 50.5299 49.2127 51.0377 49.5875 51.4125C49.9622 51.7872 50.47 51.9984 50.9999 52H60.9999Z" fill="#FDC741"/>
<path d="M42.9999 49H30.9999C29.8954 49 28.9999 49.8954 28.9999 51V53C28.9999 54.1046 29.8954 55 30.9999 55H42.9999C44.1045 55 44.9999 54.1046 44.9999 53V51C44.9999 49.8954 44.1045 49 42.9999 49Z" fill="#FCEA42"/>
<path d="M44.9999 52V53C44.9984 53.5299 44.7871 54.0377 44.4124 54.4125C44.0377 54.7872 43.5299 54.9984 42.9999 55H30.9999C30.47 54.9984 29.9622 54.7872 29.5875 54.4125C29.2127 54.0377 29.0015 53.5299 28.9999 53V51C29.0015 50.4701 29.2127 49.9623 29.5875 49.5875C29.9622 49.2128 30.47 49.0016 30.9999 49H32.9999V50C33.0015 50.5299 33.2127 51.0377 33.5875 51.4125C33.9622 51.7872 34.47 51.9984 34.9999 52H44.9999Z" fill="#FDC741"/>
<path d="M58.9999 55H46.9999C45.8954 55 44.9999 55.8954 44.9999 57V59C44.9999 60.1046 45.8954 61 46.9999 61H58.9999C60.1045 61 60.9999 60.1046 60.9999 59V57C60.9999 55.8954 60.1045 55 58.9999 55Z" fill="#FCEA42"/>
<path d="M60.9999 58V59C60.9984 59.5299 60.7871 60.0377 60.4124 60.4125C60.0377 60.7872 59.5299 60.9984 58.9999 61H46.9999C46.47 60.9984 45.9622 60.7872 45.5875 60.4125C45.2127 60.0377 45.0015 59.5299 44.9999 59V57C45.0015 56.4701 45.2127 55.9623 45.5875 55.5875C45.9622 55.2128 46.47 55.0016 46.9999 55H48.9999V56C49.0015 56.5299 49.2127 57.0377 49.5875 57.4125C49.9622 57.7872 50.47 57.9984 50.9999 58H60.9999Z" fill="#FDC741"/>
<path d="M42.9999 55H30.9999C29.8954 55 28.9999 55.8954 28.9999 57V59C28.9999 60.1046 29.8954 61 30.9999 61H42.9999C44.1045 61 44.9999 60.1046 44.9999 59V57C44.9999 55.8954 44.1045 55 42.9999 55Z" fill="#FCEA42"/>
<path d="M44.9999 58V59C44.9984 59.5299 44.7871 60.0377 44.4124 60.4125C44.0377 60.7872 43.5299 60.9984 42.9999 61H30.9999C30.47 60.9984 29.9622 60.7872 29.5875 60.4125C29.2127 60.0377 29.0015 59.5299 28.9999 59V57C29.0015 56.4701 29.2127 55.9623 29.5875 55.5875C29.9622 55.2128 30.47 55.0016 30.9999 55H32.9999V56C33.0015 56.5299 33.2127 57.0377 33.5875 57.4125C33.9622 57.7872 34.47 57.9984 34.9999 58H44.9999Z" fill="#FDC741"/>
<path d="M26.9999 49H14.9999C13.8954 49 12.9999 49.8954 12.9999 51V53C12.9999 54.1046 13.8954 55 14.9999 55H26.9999C28.1045 55 28.9999 54.1046 28.9999 53V51C28.9999 49.8954 28.1045 49 26.9999 49Z" fill="#FCEA42"/>
<path d="M28.9999 52V53C28.9984 53.5299 28.7871 54.0377 28.4124 54.4125C28.0377 54.7872 27.5299 54.9984 26.9999 55H14.9999C14.47 54.9984 13.9622 54.7872 13.5875 54.4125C13.2127 54.0377 13.0015 53.5299 12.9999 53V51C13.0015 50.4701 13.2127 49.9623 13.5875 49.5875C13.9622 49.2128 14.47 49.0016 14.9999 49H16.9999V50C17.0015 50.5299 17.2127 51.0377 17.5875 51.4125C17.9622 51.7872 18.47 51.9984 18.9999 52H28.9999Z" fill="#FDC741"/>
<path d="M26.9999 55H14.9999C13.8954 55 12.9999 55.8954 12.9999 57V59C12.9999 60.1046 13.8954 61 14.9999 61H26.9999C28.1045 61 28.9999 60.1046 28.9999 59V57C28.9999 55.8954 28.1045 55 26.9999 55Z" fill="#FCEA42"/>
<path d="M28.9999 58V59C28.9984 59.5299 28.7871 60.0377 28.4124 60.4125C28.0377 60.7872 27.5299 60.9984 26.9999 61H14.9999C14.47 60.9984 13.9622 60.7872 13.5875 60.4125C13.2127 60.0377 13.0015 59.5299 12.9999 59V57C13.0015 56.4701 13.2127 55.9623 13.5875 55.5875C13.9622 55.2128 14.47 55.0016 14.9999 55H16.9999V56C17.0015 56.5299 17.2127 57.0377 17.5875 57.4125C17.9622 57.7872 18.47 57.9984 18.9999 58H28.9999Z" fill="#FDC741"/>
<path d="M44.1299 35.9L34.2099 42.65C33.7723 42.9497 33.2336 43.0632 32.7123 42.9657C32.1909 42.8682 31.7297 42.5676 31.4299 42.13L30.2999 40.47C30.0034 40.0305 29.8927 39.4916 29.992 38.9708C30.0912 38.45 30.3925 37.9895 30.8299 37.69L32.1699 36.78L33.0699 38.09C33.2176 38.3075 33.4066 38.4937 33.6263 38.638C33.8459 38.7824 34.0919 38.882 34.3501 38.9312C34.6083 38.9805 34.8736 38.9783 35.131 38.9249C35.3884 38.8715 35.6327 38.7679 35.8499 38.62L44.4199 32.78L44.6499 33.12C44.948 33.5581 45.0606 34.0964 44.9632 34.6172C44.8658 35.1381 44.5662 35.5993 44.1299 35.9Z" fill="#FDC741"/>
<path d="M56.9999 11C56.9999 9.93913 56.5785 8.92172 55.8284 8.17157C55.0782 7.42143 54.0608 7 52.9999 7C54.0608 7 55.0782 6.57857 55.8284 5.82843C56.5785 5.07828 56.9999 4.06087 56.9999 3C56.9999 4.06087 57.4214 5.07828 58.1715 5.82843C58.9217 6.57857 59.9391 7 60.9999 7C59.9391 7 58.9217 7.42143 58.1715 8.17157C57.4214 8.92172 56.9999 9.93913 56.9999 11V11Z" fill="#FCEA42"/>
<path d="M59.5099 7.3C59.0077 7.49385 58.5514 7.79014 58.1699 8.17C57.4223 8.92233 57.0018 9.93936 56.9999 11C56.9999 9.93913 56.5785 8.92172 55.8284 8.17157C55.0782 7.42143 54.0608 7 52.9999 7C54.0606 6.9981 55.0776 6.57764 55.8299 5.83C56.2098 5.44856 56.5061 4.99221 56.6999 4.49L56.5899 5.06C56.5262 5.38228 56.5428 5.7153 56.6384 6.02963C56.7339 6.34396 56.9054 6.62991 57.1377 6.86221C57.37 7.09451 57.656 7.26601 57.9703 7.36155C58.2846 7.45709 58.6177 7.47373 58.9399 7.41L59.5099 7.3Z" fill="#FDC741"/>
<path d="M38.9999 20C38.9999 18.9391 38.5785 17.9217 37.8284 17.1716C37.0782 16.4214 36.0608 16 34.9999 16V16C36.0608 16 37.0782 15.5786 37.8284 14.8284C38.5785 14.0783 38.9999 13.0609 38.9999 12C38.9999 13.0609 39.4214 14.0783 40.1715 14.8284C40.9217 15.5786 41.9391 16 42.9999 16C41.9391 16 40.9217 16.4214 40.1715 17.1716C39.4214 17.9217 38.9999 18.9391 38.9999 20Z" fill="#FCEA42"/>
<path d="M41.5099 16.3C41.0077 16.4939 40.5514 16.7901 40.1699 17.17C39.4223 17.9223 39.0018 18.9394 38.9999 20C38.9999 18.9391 38.5785 17.9217 37.8284 17.1716C37.0782 16.4214 36.0608 16 34.9999 16C36.0606 15.9981 37.0776 15.5776 37.8299 14.83C38.2098 14.4486 38.5061 13.9922 38.6999 13.49L38.5899 14.06C38.5262 14.3823 38.5428 14.7153 38.6384 15.0296C38.7339 15.344 38.9054 15.6299 39.1377 15.8622C39.37 16.0945 39.656 16.266 39.9703 16.3616C40.2846 16.4571 40.6177 16.4737 40.9399 16.41L41.5099 16.3Z" fill="#FDC741"/>
<path d="M7.99994 31C7.99994 29.9391 7.57851 28.9217 6.82837 28.1716C6.07822 27.4214 5.0608 27 3.99994 27V27C5.0608 27 6.07822 26.5786 6.82837 25.8284C7.57851 25.0783 7.99994 24.0609 7.99994 23C7.99994 24.0609 8.42137 25.0783 9.17151 25.8284C9.92166 26.5786 10.9391 27 11.9999 27C10.9391 27 9.92166 27.4214 9.17151 28.1716C8.42137 28.9217 7.99994 29.9391 7.99994 31V31Z" fill="#FCEA42"/>
<path d="M10.5099 27.3C10.0077 27.4939 9.55138 27.7901 9.16994 28.17C8.4223 28.9223 8.00183 29.9394 7.99994 31C7.99994 29.9391 7.57851 28.9217 6.82837 28.1716C6.07822 27.4214 5.0608 27 3.99994 27C5.06058 26.9981 6.07761 26.5776 6.82994 25.83C7.2098 25.4486 7.50609 24.9922 7.69994 24.49L7.58994 25.06C7.52621 25.3823 7.54284 25.7153 7.63839 26.0296C7.73393 26.344 7.90543 26.6299 8.13773 26.8622C8.37003 27.0945 8.65598 27.266 8.97031 27.3616C9.28463 27.4571 9.61765 27.4737 9.93994 27.41L10.5099 27.3Z" fill="#FDC741"/>
<path d="M16.9999 45C16.9999 43.9391 16.5785 42.9217 15.8284 42.1716C15.0782 41.4214 14.0608 41 12.9999 41C14.0608 41 15.0782 40.5786 15.8284 39.8284C16.5785 39.0783 16.9999 38.0609 16.9999 37C16.9999 38.0609 17.4214 39.0783 18.1715 39.8284C18.9217 40.5786 19.9391 41 20.9999 41C19.9391 41 18.9217 41.4214 18.1715 42.1716C17.4214 42.9217 16.9999 43.9391 16.9999 45Z" fill="#FCEA42"/>
<path d="M19.5099 41.3C19.0077 41.4939 18.5514 41.7901 18.1699 42.17C17.4223 42.9223 17.0018 43.9394 16.9999 45C16.9999 43.9391 16.5785 42.9217 15.8284 42.1716C15.0782 41.4214 14.0608 41 12.9999 41C14.0606 40.9981 15.0776 40.5776 15.8299 39.83C16.2098 39.4486 16.5061 38.9922 16.6999 38.49L16.5899 39.06C16.5262 39.3823 16.5428 39.7153 16.6384 40.0296C16.7339 40.344 16.9054 40.6299 17.1377 40.8622C17.37 41.0945 17.656 41.266 17.9703 41.3616C18.2846 41.4571 18.6177 41.4737 18.9399 41.41L19.5099 41.3Z" fill="#FDC741"/>
<path d="M9.21798 58.365C8.02998 58.101 6.84998 57.805 5.71098 57.487C5.28637 57.3673 4.90414 57.1302 4.60819 56.8031C4.31225 56.4759 4.1146 56.0719 4.03794 55.6374C3.96129 55.203 4.00874 54.7557 4.17484 54.347C4.34095 53.9383 4.61897 53.5848 4.97698 53.327C5.54155 52.9262 6.00175 52.3958 6.31895 51.7804C6.63615 51.1649 6.80111 50.4824 6.79998 49.79V35.34C6.80468 34.098 6.94586 32.8602 7.22098 31.649C7.31097 31.7715 7.42818 31.8713 7.56337 31.9407C7.69855 32.0102 7.84802 32.0472 7.99998 32.049C8.26519 32.049 8.51955 31.9436 8.70708 31.7561C8.89462 31.5686 8.99998 31.3142 8.99998 31.049C8.99998 30.2534 9.31605 29.4903 9.87865 28.9277C10.4413 28.3651 11.2043 28.049 12 28.049C12.2652 28.049 12.5195 27.9436 12.7071 27.7561C12.8946 27.5686 13 27.3142 13 27.049C13 26.7838 12.8946 26.5294 12.7071 26.3419C12.5195 26.1544 12.2652 26.049 12 26.049C11.2816 26.0462 10.5885 25.7833 10.049 25.309C11.6503 23.0723 13.7671 21.2543 16.22 20.009C16.4421 20.5807 16.8509 21.0607 17.38 21.371C19.3977 22.5187 21.6792 23.1221 24.0005 23.1221C26.3218 23.1221 28.6032 22.5187 30.621 21.371V21.371C31.1271 21.0728 31.5232 20.6189 31.75 20.077C34.9278 21.7476 37.5174 24.3518 39.17 27.539C39.2286 27.659 39.3106 27.766 39.4112 27.8537C39.5119 27.9414 39.629 28.0082 39.7559 28.0499C39.8827 28.0916 40.0166 28.1076 40.1496 28.0967C40.2827 28.0859 40.4122 28.0485 40.5306 27.9868C40.649 27.9251 40.7539 27.8403 40.839 27.7375C40.9241 27.6346 40.9877 27.5157 41.0261 27.3879C41.0646 27.26 41.077 27.1258 41.0627 26.993C41.0484 26.8603 41.0077 26.7318 40.943 26.615C38.9373 22.7467 35.6938 19.6616 31.73 17.852C31.501 17.3407 31.1187 16.9133 30.636 16.629C30.5504 16.5876 30.4626 16.5508 30.373 16.519L31.131 14.148C31.1922 13.9019 31.1576 13.6417 31.0341 13.4201C30.9107 13.1985 30.7077 13.0321 30.4662 12.9546C30.2247 12.877 29.9628 12.8942 29.7334 13.0025C29.5041 13.1108 29.3245 13.3022 29.231 13.538L28.297 16.46C28.1638 16.5031 28.0341 16.5562 27.909 16.619C27.4329 16.8854 26.9302 17.1009 26.409 17.262L26.997 13.145C27.0346 12.8824 26.9665 12.6157 26.8074 12.4034C26.6484 12.1911 26.4115 12.0507 26.149 12.013C25.8864 11.9753 25.6196 12.0435 25.4073 12.2026C25.1951 12.3616 25.0546 12.5984 25.017 12.861L24.336 17.631C24.149 17.638 23.963 17.642 23.776 17.637L23 9.9C22.9735 9.63611 22.8432 9.39356 22.6378 9.22572C22.4325 9.05787 22.1689 8.97848 21.905 9.005C21.6411 9.03152 21.3985 9.16179 21.2307 9.36714C21.0628 9.57249 20.9835 9.83611 21.01 10.1L21.73 17.3C21.162 17.1341 20.6148 16.904 20.099 16.614C19.9743 16.551 19.8449 16.4979 19.712 16.455L16.881 7.6C16.7411 7.1963 16.7012 6.76473 16.7646 6.34223C16.828 5.91973 16.9928 5.51888 17.245 5.174C17.4614 4.87727 17.7343 4.62617 18.0479 4.43506C18.3615 4.24396 18.7098 4.11661 19.0727 4.06032C19.4357 4.00402 19.8061 4.01989 20.1629 4.10701C20.5197 4.19412 20.8558 4.35078 21.152 4.568C21.9787 5.17393 22.977 5.50061 24.002 5.50061C25.027 5.50061 26.0253 5.17393 26.852 4.568C27.3177 4.2176 27.8829 4.02448 28.4657 4.01658C29.0484 4.00869 29.6186 4.18642 30.0937 4.52407C30.5687 4.86172 30.9241 5.34176 31.1082 5.89474C31.2923 6.44772 31.2958 7.04495 31.118 7.6L30.437 9.721C30.375 9.96736 30.4091 10.2281 30.5323 10.4502C30.6556 10.6723 30.8588 10.8392 31.1006 10.917C31.3424 10.9948 31.6048 10.9776 31.8344 10.8689C32.0641 10.7603 32.2438 10.5683 32.337 10.332L33.017 8.213C33.3369 7.25594 33.3381 6.22099 33.0204 5.26318C32.7028 4.30536 32.0834 3.47624 31.255 2.9C30.4393 2.3047 29.4527 1.98992 28.443 2.0029C27.4333 2.01589 26.455 2.35592 25.655 2.972C25.1758 3.32149 24.5981 3.50981 24.005 3.50981C23.4119 3.50981 22.8341 3.32149 22.355 2.972C21.5395 2.34365 20.5395 2.00199 19.51 2C18.7513 2.00497 18.0044 2.18864 17.33 2.53612C16.6555 2.8836 16.0724 3.38511 15.628 4C15.1917 4.59978 14.905 5.29511 14.7917 6.0281C14.6785 6.76109 14.742 7.51052 14.977 8.214L17.626 16.514C17.539 16.554 17.447 16.576 17.363 16.625C16.9055 16.8932 16.5369 17.29 16.303 17.766C13.4623 19.0073 10.9662 20.921 9.02998 23.342C9.01488 23.2446 9.00487 23.1465 8.99998 23.048C8.99998 22.7828 8.89462 22.5284 8.70708 22.3409C8.51955 22.1534 8.26519 22.048 7.99998 22.048C7.73476 22.048 7.48041 22.1534 7.29287 22.3409C7.10533 22.5284 6.99998 22.7828 6.99998 23.048C6.99998 23.8436 6.68391 24.6067 6.1213 25.1693C5.55869 25.7319 4.79563 26.048 3.99998 26.048C3.73476 26.048 3.48041 26.1534 3.29287 26.3409C3.10533 26.5284 2.99998 26.7828 2.99998 27.048C2.99998 27.3132 3.10533 27.5676 3.29287 27.7551C3.48041 27.9426 3.73476 28.048 3.99998 28.048C4.72556 28.0506 5.42517 28.3184 5.96698 28.801C5.1982 30.8956 4.80321 33.1088 4.79998 35.34V49.79C4.80203 50.1638 4.71394 50.5325 4.54317 50.865C4.3724 51.1975 4.12398 51.4839 3.81898 51.7C3.15293 52.1765 2.63509 52.8314 2.32516 53.5895C2.01522 54.3475 1.92581 55.1776 2.06724 55.9842C2.20866 56.7909 2.57515 57.5411 3.12447 58.1484C3.67379 58.7558 4.38357 59.1955 5.17198 59.417C6.34698 59.745 7.56198 60.049 8.78198 60.317C8.85358 60.3328 8.92666 60.3408 8.99998 60.341C9.24616 60.3408 9.48362 60.2498 9.66689 60.0854C9.85016 59.9211 9.96636 59.6949 9.99323 59.4502C10.0201 59.2054 9.95577 58.9594 9.81254 58.7592C9.66931 58.559 9.45725 58.4186 9.21698 58.365H9.21798ZM28.9 18.353C29.0119 18.2893 29.1385 18.2561 29.2673 18.2567C29.396 18.2573 29.5223 18.2916 29.6337 18.3563C29.745 18.4209 29.8374 18.5137 29.9017 18.6252C29.966 18.7368 29.9999 18.8633 30 18.992C29.9997 19.122 29.9652 19.2496 29.8999 19.3619C29.8346 19.4743 29.7408 19.5675 29.628 19.632C27.9126 20.6073 25.9732 21.12 24 21.12C22.0267 21.12 20.0874 20.6073 18.372 19.632C18.2592 19.5675 18.1654 19.4743 18.1001 19.3619C18.0348 19.2496 18.0002 19.122 18 18.992C17.9989 18.8629 18.0323 18.7358 18.0966 18.6239C18.1609 18.5119 18.2539 18.4191 18.366 18.355C18.4797 18.2903 18.6081 18.2558 18.739 18.255C18.8671 18.2552 18.9928 18.2898 19.103 18.355C20.5962 19.2035 22.2843 19.6494 24.0017 19.649C25.7192 19.6487 27.4071 19.2021 28.9 18.353V18.353ZM7.99998 26.045C8.28442 26.4239 8.6211 26.7606 8.99998 27.045C8.6211 27.3294 8.28442 27.6661 7.99998 28.045C7.71553 27.6661 7.37885 27.3294 6.99998 27.045C7.37885 26.7606 7.71553 26.4239 7.99998 26.045V26.045Z" fill="#323232"/>
<path d="M62 29C61.9977 27.3934 61.565 25.8168 60.747 24.434C60.6121 24.2055 60.392 24.04 60.1351 23.9738C59.8782 23.9076 59.6055 23.9461 59.377 24.081C59.1485 24.2159 58.983 24.436 58.9168 24.6929C58.8506 24.9498 58.8891 25.2225 59.024 25.451C59.8936 26.9232 60.1963 28.6621 59.8752 30.3415C59.5542 32.021 58.6315 33.5256 57.2802 34.5732C55.9288 35.6209 54.2417 36.1395 52.5353 36.0319C50.8288 35.9244 49.2202 35.1979 48.0111 33.9889C46.8021 32.7798 46.0756 31.1712 45.9681 29.4647C45.8605 27.7583 46.3791 26.0712 47.4268 24.7199C48.4744 23.3685 49.979 22.4458 51.6585 22.1248C53.3379 21.8037 55.0768 22.1064 56.549 22.976C56.7775 23.1109 57.0502 23.1494 57.3071 23.0832C57.564 23.017 57.7841 22.8515 57.919 22.623C58.0539 22.3945 58.0924 22.1218 58.0262 21.8649C57.96 21.608 57.7945 21.3879 57.566 21.253C56.0777 20.3705 54.3662 19.9367 52.6372 20.0038C50.9083 20.0709 49.2355 20.636 47.8201 21.6311C46.4046 22.6263 45.3068 24.0091 44.6585 25.6133C44.0103 27.2175 43.8393 28.9749 44.166 30.674C43.6908 30.1039 43.0208 29.7307 42.2859 29.6267C41.5511 29.5226 40.8038 29.6952 40.189 30.111L30.271 36.868C29.614 37.3162 29.1619 38.0068 29.0139 38.7882C28.866 39.5696 29.0343 40.3777 29.482 41.035L30.138 42H26C25.2044 42 24.4413 42.3161 23.8787 42.8787C23.3161 43.4413 23 44.2044 23 45C23 45.2652 23.1054 45.5196 23.2929 45.7071C23.4804 45.8946 23.7348 46 24 46C24.2652 46 24.5196 45.8946 24.7071 45.7071C24.8946 45.5196 25 45.2652 25 45C25 44.7348 25.1054 44.4804 25.2929 44.2929C25.4804 44.1054 25.7348 44 26 44H27V45C27 45.2652 27.1054 45.5196 27.2929 45.7071C27.4804 45.8946 27.7348 46 28 46C28.2652 46 28.5196 45.8946 28.7071 45.7071C28.8946 45.5196 29 45.2652 29 45V44H31V45C31 45.2652 31.1054 45.5196 31.2929 45.7071C31.4804 45.8946 31.7348 46 32 46C32.2652 46 32.5196 45.8946 32.7071 45.7071C32.8946 45.5196 33 45.2652 33 45V44H35V45C35 45.2652 35.1054 45.5196 35.2929 45.7071C35.4804 45.8946 35.7348 46 36 46C36.2652 46 36.5196 45.8946 36.7071 45.7071C36.8946 45.5196 37 45.2652 37 45V44H38C38.2652 44 38.5196 44.1054 38.7071 44.2929C38.8946 44.4804 39 44.7348 39 45V47C39 47.2652 38.8946 47.5196 38.7071 47.7071C38.5196 47.8946 38.2652 48 38 48H31C30.2596 48.0026 29.5467 48.2807 29 48.78C28.4533 48.2807 27.7404 48.0026 27 48H15C14.2044 48 13.4413 48.3161 12.8787 48.8787C12.3161 49.4413 12 50.2044 12 51V53C12.0026 53.7404 12.2806 54.4533 12.78 55C12.2806 55.5467 12.0026 56.2596 12 57V59C12 59.7957 12.3161 60.5587 12.8787 61.1213C13.4413 61.6839 14.2044 62 15 62H27C27.7404 61.9974 28.4533 61.7194 29 61.22C29.5467 61.7194 30.2596 61.9974 31 62H37C37.2652 62 37.5196 61.8946 37.7071 61.7071C37.8946 61.5196 38 61.2652 38 61C38 60.7348 37.8946 60.4804 37.7071 60.2929C37.5196 60.1054 37.2652 60 37 60H31C30.7348 60 30.4804 59.8946 30.2929 59.7071C30.1054 59.5196 30 59.2652 30 59V57C30 56.7348 30.1054 56.4804 30.2929 56.2929C30.4804 56.1054 30.7348 56 31 56H32V57C32 57.2652 32.1054 57.5196 32.2929 57.7071C32.4804 57.8946 32.7348 58 33 58C33.2652 58 33.5196 57.8946 33.7071 57.7071C33.8946 57.5196 34 57.2652 34 57V56H36V57C36 57.2652 36.1054 57.5196 36.2929 57.7071C36.4804 57.8946 36.7348 58 37 58C37.2652 58 37.5196 57.8946 37.7071 57.7071C37.8946 57.5196 38 57.2652 38 57V56H40V57C40 57.2652 40.1054 57.5196 40.2929 57.7071C40.4804 57.8946 40.7348 58 41 58C41.2652 58 41.5196 57.8946 41.7071 57.7071C41.8946 57.5196 42 57.2652 42 57V56H43C43.2652 56 43.5196 56.1054 43.7071 56.2929C43.8946 56.4804 44 56.7348 44 57V59C44 59.2652 43.8946 59.5196 43.7071 59.7071C43.5196 59.8946 43.2652 60 43 60H41C40.7348 60 40.4804 60.1054 40.2929 60.2929C40.1054 60.4804 40 60.7348 40 61C40 61.2652 40.1054 61.5196 40.2929 61.7071C40.4804 61.8946 40.7348 62 41 62H43C43.7404 61.9974 44.4533 61.7194 45 61.22C45.5467 61.7194 46.2596 61.9974 47 62H59C59.7956 62 60.5587 61.6839 61.1213 61.1213C61.6839 60.5587 62 59.7957 62 59V57C62 56.2044 61.6839 55.4413 61.1213 54.8787C60.5587 54.3161 59.7956 54 59 54H47C46.7348 54 46.4804 53.8946 46.2929 53.7071C46.1054 53.5196 46 53.2652 46 53V51C46 50.7348 46.1054 50.4804 46.2929 50.2929C46.4804 50.1054 46.7348 50 47 50H48V51C48 51.2652 48.1054 51.5196 48.2929 51.7071C48.4804 51.8946 48.7348 52 49 52C49.2652 52 49.5196 51.8946 49.7071 51.7071C49.8946 51.5196 50 51.2652 50 51V50H52V51C52 51.2652 52.1054 51.5196 52.2929 51.7071C52.4804 51.8946 52.7348 52 53 52C53.2652 52 53.5196 51.8946 53.7071 51.7071C53.8946 51.5196 54 51.2652 54 51V50H56V51C56 51.2652 56.1054 51.5196 56.2929 51.7071C56.4804 51.8946 56.7348 52 57 52C57.2652 52 57.5196 51.8946 57.7071 51.7071C57.8946 51.5196 58 51.2652 58 51V50H59C59.2652 50 59.5196 50.1054 59.7071 50.2929C59.8946 50.4804 60 50.7348 60 51C60 51.2652 60.1054 51.5196 60.2929 51.7071C60.4804 51.8946 60.7348 52 61 52C61.2652 52 61.5196 51.8946 61.7071 51.7071C61.8946 51.5196 62 51.2652 62 51C62 50.2044 61.6839 49.4413 61.1213 48.8787C60.5587 48.3161 59.7956 48 59 48H56.816C56.9344 47.6797 56.9967 47.3414 57 47V45C56.9989 44.6173 56.9242 44.2385 56.78 43.884C57.415 43.713 57.9762 43.3382 58.3773 42.8171C58.7784 42.296 58.9972 41.6576 59 41V39C58.9987 38.5342 58.8886 38.0751 58.6783 37.6594C58.468 37.2438 58.1635 36.883 57.789 36.606C59.0768 35.7977 60.1386 34.6761 60.8751 33.3459C61.6115 32.0157 61.9986 30.5205 62 29V29ZM47.355 36H45.42C45.6826 35.6441 45.8627 35.2342 45.947 34.8C45.96 34.732 45.957 34.665 45.966 34.6C46.3767 35.1158 46.8425 35.5852 47.355 36V36ZM31.394 38.521L32.22 37.958L32.783 38.784C32.857 38.8925 32.9517 38.9854 33.0616 39.0574C33.1715 39.1294 33.2945 39.179 33.4235 39.2034C33.5526 39.2278 33.6852 39.2266 33.8138 39.1997C33.9424 39.1729 34.0645 39.121 34.173 39.047C34.2815 38.973 34.3744 38.8784 34.4464 38.7684C34.5184 38.6585 34.568 38.5355 34.5924 38.4065C34.6168 38.2774 34.6156 38.1448 34.5887 38.0162C34.5619 37.8876 34.51 37.7655 34.436 37.657L33.873 36.831L35.526 35.705L36.089 36.531C36.1606 36.6447 36.2543 36.7429 36.3646 36.8196C36.475 36.8963 36.5996 36.95 36.7312 36.9774C36.8627 37.0049 36.9985 37.0055 37.1303 36.9793C37.2621 36.9532 37.3872 36.9007 37.4983 36.8251C37.6094 36.7494 37.7041 36.6522 37.7767 36.5391C37.8493 36.4261 37.8985 36.2995 37.9211 36.1671C37.9438 36.0346 37.9395 35.899 37.9086 35.7682C37.8776 35.6374 37.8206 35.5143 37.741 35.406L37.178 34.58L38.832 33.453L39.395 34.279C39.4666 34.3927 39.5603 34.4909 39.6706 34.5676C39.781 34.6443 39.9056 34.698 40.0372 34.7254C40.1687 34.7529 40.3045 34.7535 40.4363 34.7273C40.5681 34.7012 40.6932 34.6487 40.8043 34.5731C40.9154 34.4974 41.0101 34.4002 41.0827 34.2871C41.1553 34.1741 41.2045 34.0475 41.2271 33.9151C41.2498 33.7826 41.2455 33.647 41.2146 33.5162C41.1836 33.3854 41.1266 33.2623 41.047 33.154L40.484 32.328L41.312 31.764C41.4767 31.6507 41.6721 31.5903 41.872 31.591C42.035 31.5905 42.1957 31.6299 42.34 31.7057C42.4843 31.7816 42.6079 31.8915 42.7 32.026L43.826 33.681C43.9746 33.9 44.0303 34.1689 43.981 34.4288C43.9317 34.6888 43.7814 34.9186 43.563 35.068L33.647 41.825C33.5384 41.899 33.4162 41.9509 33.2875 41.9777C33.1588 42.0044 33.0261 42.0056 32.897 41.981C32.7678 41.9572 32.6447 41.9078 32.5349 41.8359C32.425 41.7639 32.3305 41.6708 32.257 41.562L31.13 39.909C30.9812 39.6899 30.9254 39.4206 30.9749 39.1604C31.0244 38.9002 31.1751 38.6702 31.394 38.521ZM38 42H36.943L41 39.235V41C41.0011 41.3827 41.0758 41.7616 41.22 42.116C40.7668 42.2384 40.3488 42.4658 40 42.78C39.4533 42.2807 38.7404 42.0026 38 42ZM14 51C14 50.7348 14.1054 50.4804 14.2929 50.2929C14.4804 50.1054 14.7348 50 15 50H16V51C16 51.2652 16.1054 51.5196 16.2929 51.7071C16.4804 51.8946 16.7348 52 17 52C17.2652 52 17.5196 51.8946 17.7071 51.7071C17.8946 51.5196 18 51.2652 18 51V50H20V51C20 51.2652 20.1054 51.5196 20.2929 51.7071C20.4804 51.8946 20.7348 52 21 52C21.2652 52 21.5196 51.8946 21.7071 51.7071C21.8946 51.5196 22 51.2652 22 51V50H24V51C24 51.2652 24.1054 51.5196 24.2929 51.7071C24.4804 51.8946 24.7348 52 25 52C25.2652 52 25.5196 51.8946 25.7071 51.7071C25.8946 51.5196 26 51.2652 26 51V50H27C27.2652 50 27.5196 50.1054 27.7071 50.2929C27.8946 50.4804 28 50.7348 28 51V53C28 53.2652 27.8946 53.5196 27.7071 53.7071C27.5196 53.8946 27.2652 54 27 54H15C14.7348 54 14.4804 53.8946 14.2929 53.7071C14.1054 53.5196 14 53.2652 14 53V51ZM27 60H15C14.7348 60 14.4804 59.8946 14.2929 59.7071C14.1054 59.5196 14 59.2652 14 59V57C14 56.7348 14.1054 56.4804 14.2929 56.2929C14.4804 56.1054 14.7348 56 15 56H16V57C16 57.2652 16.1054 57.5196 16.2929 57.7071C16.4804 57.8946 16.7348 58 17 58C17.2652 58 17.5196 57.8946 17.7071 57.7071C17.8946 57.5196 18 57.2652 18 57V56H20V57C20 57.2652 20.1054 57.5196 20.2929 57.7071C20.4804 57.8946 20.7348 58 21 58C21.2652 58 21.5196 57.8946 21.7071 57.7071C21.8946 57.5196 22 57.2652 22 57V56H24V57C24 57.2652 24.1054 57.5196 24.2929 57.7071C24.4804 57.8946 24.7348 58 25 58C25.2652 58 25.5196 57.8946 25.7071 57.7071C25.8946 57.5196 26 57.2652 26 57V56H27C27.2652 56 27.5196 56.1054 27.7071 56.2929C27.8946 56.4804 28 56.7348 28 57V59C28 59.2652 27.8946 59.5196 27.7071 59.7071C27.5196 59.8946 27.2652 60 27 60ZM31 54C30.7348 54 30.4804 53.8946 30.2929 53.7071C30.1054 53.5196 30 53.2652 30 53V51C30 50.7348 30.1054 50.4804 30.2929 50.2929C30.4804 50.1054 30.7348 50 31 50H32V51C32 51.2652 32.1054 51.5196 32.2929 51.7071C32.4804 51.8946 32.7348 52 33 52C33.2652 52 33.5196 51.8946 33.7071 51.7071C33.8946 51.5196 34 51.2652 34 51V50H36V51C36 51.2652 36.1054 51.5196 36.2929 51.7071C36.4804 51.8946 36.7348 52 37 52C37.2652 52 37.5196 51.8946 37.7071 51.7071C37.8946 51.5196 38 51.2652 38 51V50H40V51C40 51.2652 40.1054 51.5196 40.2929 51.7071C40.4804 51.8946 40.7348 52 41 52C41.2652 52 41.5196 51.8946 41.7071 51.7071C41.8946 51.5196 42 51.2652 42 51V50H43C43.2652 50 43.5196 50.1054 43.7071 50.2929C43.8946 50.4804 44 50.7348 44 51V53C44 53.2652 43.8946 53.5196 43.7071 53.7071C43.5196 53.8946 43.2652 54 43 54H31ZM48 56V57C48 57.2652 48.1054 57.5196 48.2929 57.7071C48.4804 57.8946 48.7348 58 49 58C49.2652 58 49.5196 57.8946 49.7071 57.7071C49.8946 57.5196 50 57.2652 50 57V56H52V57C52 57.2652 52.1054 57.5196 52.2929 57.7071C52.4804 57.8946 52.7348 58 53 58C53.2652 58 53.5196 57.8946 53.7071 57.7071C53.8946 57.5196 54 57.2652 54 57V56H56V57C56 57.2652 56.1054 57.5196 56.2929 57.7071C56.4804 57.8946 56.7348 58 57 58C57.2652 58 57.5196 57.8946 57.7071 57.7071C57.8946 57.5196 58 57.2652 58 57V56H59C59.2652 56 59.5196 56.1054 59.7071 56.2929C59.8946 56.4804 60 56.7348 60 57V59C60 59.2652 59.8946 59.5196 59.7071 59.7071C59.5196 59.8946 59.2652 60 59 60H47C46.7348 60 46.4804 59.8946 46.2929 59.7071C46.1054 59.5196 46 59.2652 46 59V57C46 56.7348 46.1054 56.4804 46.2929 56.2929C46.4804 56.1054 46.7348 56 47 56H48ZM42 48C41.7348 48 41.4804 47.8946 41.2929 47.7071C41.1054 47.5196 41 47.2652 41 47V45C41 44.7348 41.1054 44.4804 41.2929 44.2929C41.4804 44.1054 41.7348 44 42 44H43V45C43 45.2652 43.1054 45.5196 43.2929 45.7071C43.4804 45.8946 43.7348 46 44 46C44.2652 46 44.5196 45.8946 44.7071 45.7071C44.8946 45.5196 45 45.2652 45 45V44H47V45C47 45.2652 47.1054 45.5196 47.2929 45.7071C47.4804 45.8946 47.7348 46 48 46C48.2652 46 48.5196 45.8946 48.7071 45.7071C48.8946 45.5196 49 45.2652 49 45V44H51V45C51 45.2652 51.1054 45.5196 51.2929 45.7071C51.4804 45.8946 51.7348 46 52 46C52.2652 46 52.5196 45.8946 52.7071 45.7071C52.8946 45.5196 53 45.2652 53 45V44H54C54.2652 44 54.5196 44.1054 54.7071 44.2929C54.8946 44.4804 55 44.7348 55 45V47C55 47.2652 54.8946 47.5196 54.7071 47.7071C54.5196 47.8946 54.2652 48 54 48H42ZM57 41C57 41.2652 56.8946 41.5196 56.7071 41.7071C56.5196 41.8946 56.2652 42 56 42H44C43.7348 42 43.4804 41.8946 43.2929 41.7071C43.1054 41.5196 43 41.2652 43 41V39C43 38.7348 43.1054 38.4804 43.2929 38.2929C43.4804 38.1054 43.7348 38 44 38H45V39C45 39.2652 45.1054 39.5196 45.2929 39.7071C45.4804 39.8946 45.7348 40 46 40C46.2652 40 46.5196 39.8946 46.7071 39.7071C46.8946 39.5196 47 39.2652 47 39V38H49V39C49 39.2652 49.1054 39.5196 49.2929 39.7071C49.4804 39.8946 49.7348 40 50 40C50.2652 40 50.5196 39.8946 50.7071 39.7071C50.8946 39.5196 51 39.2652 51 39V38H53V39C53 39.2652 53.1054 39.5196 53.2929 39.7071C53.4804 39.8946 53.7348 40 54 40C54.2652 40 54.5196 39.8946 54.7071 39.7071C54.8946 39.5196 55 39.2652 55 39V38H56C56.2652 38 56.5196 38.1054 56.7071 38.2929C56.8946 38.4804 57 38.7348 57 39V41Z" fill="#323232"/>
<path d="M53 24C52.0111 24 51.0444 24.2932 50.2222 24.8427C49.3999 25.3921 48.759 26.173 48.3806 27.0866C48.0022 28.0002 47.9031 29.0055 48.0961 29.9755C48.289 30.9454 48.7652 31.8363 49.4645 32.5355C50.1637 33.2348 51.0546 33.711 52.0245 33.9039C52.9945 34.0969 53.9998 33.9978 54.9134 33.6194C55.8271 33.241 56.6079 32.6001 57.1574 31.7779C57.7068 30.9556 58 29.9889 58 29C57.9984 27.6744 57.4711 26.4036 56.5338 25.4662C55.5964 24.5289 54.3256 24.0016 53 24V24ZM53 32C52.4067 32 51.8266 31.8241 51.3333 31.4944C50.8399 31.1648 50.4554 30.6962 50.2284 30.1481C50.0013 29.5999 49.9419 28.9967 50.0576 28.4147C50.1734 27.8328 50.4591 27.2982 50.8787 26.8787C51.2982 26.4591 51.8328 26.1734 52.4147 26.0576C52.9967 25.9419 53.5999 26.0013 54.1481 26.2284C54.6962 26.4554 55.1648 26.8399 55.4944 27.3333C55.8241 27.8266 56 28.4067 56 29C56 29.7956 55.6839 30.5587 55.1213 31.1213C54.5587 31.6839 53.7957 32 53 32V32Z" fill="#323232"/>
<path d="M53 8C53.7956 8 54.5587 8.31607 55.1213 8.87868C55.6839 9.44129 56 10.2044 56 11C56 11.2652 56.1054 11.5196 56.2929 11.7071C56.4804 11.8946 56.7348 12 57 12C57.2652 12 57.5196 11.8946 57.7071 11.7071C57.8946 11.5196 58 11.2652 58 11C58 10.2044 58.3161 9.44129 58.8787 8.87868C59.4413 8.31607 60.2044 8 61 8C61.2652 8 61.5196 7.89464 61.7071 7.70711C61.8946 7.51957 62 7.26522 62 7C62 6.73478 61.8946 6.48043 61.7071 6.29289C61.5196 6.10536 61.2652 6 61 6C60.2044 6 59.4413 5.68393 58.8787 5.12132C58.3161 4.55871 58 3.79565 58 3C58 2.73478 57.8946 2.48043 57.7071 2.29289C57.5196 2.10536 57.2652 2 57 2C56.7348 2 56.4804 2.10536 56.2929 2.29289C56.1054 2.48043 56 2.73478 56 3C56 3.79565 55.6839 4.55871 55.1213 5.12132C54.5587 5.68393 53.7956 6 53 6C52.7348 6 52.4804 6.10536 52.2929 6.29289C52.1054 6.48043 52 6.73478 52 7C52 7.26522 52.1054 7.51957 52.2929 7.70711C52.4804 7.89464 52.7348 8 53 8ZM57 6C57.2844 6.37888 57.6211 6.71556 58 7C57.6211 7.28444 57.2844 7.62112 57 8C56.7156 7.62112 56.3789 7.28444 56 7C56.3789 6.71556 56.7156 6.37888 57 6V6Z" fill="#323232"/>
<path d="M35 17C35.7956 17 36.5587 17.3161 37.1213 17.8787C37.6839 18.4413 38 19.2044 38 20C38 20.2652 38.1054 20.5196 38.2929 20.7071C38.4804 20.8946 38.7348 21 39 21C39.2652 21 39.5196 20.8946 39.7071 20.7071C39.8946 20.5196 40 20.2652 40 20C40 19.2044 40.3161 18.4413 40.8787 17.8787C41.4413 17.3161 42.2044 17 43 17C43.2652 17 43.5196 16.8946 43.7071 16.7071C43.8946 16.5196 44 16.2652 44 16C44 15.7348 43.8946 15.4804 43.7071 15.2929C43.5196 15.1054 43.2652 15 43 15C42.2044 15 41.4413 14.6839 40.8787 14.1213C40.3161 13.5587 40 12.7956 40 12C40 11.7348 39.8946 11.4804 39.7071 11.2929C39.5196 11.1054 39.2652 11 39 11C38.7348 11 38.4804 11.1054 38.2929 11.2929C38.1054 11.4804 38 11.7348 38 12C38 12.7956 37.6839 13.5587 37.1213 14.1213C36.5587 14.6839 35.7956 15 35 15C34.7348 15 34.4804 15.1054 34.2929 15.2929C34.1054 15.4804 34 15.7348 34 16C34 16.2652 34.1054 16.5196 34.2929 16.7071C34.4804 16.8946 34.7348 17 35 17ZM39 15C39.2844 15.3789 39.6211 15.7156 40 16C39.6211 16.2844 39.2844 16.6211 39 17C38.7156 16.6211 38.3789 16.2844 38 16C38.3789 15.7156 38.7156 15.3789 39 15V15Z" fill="#323232"/>
<path d="M17 36C16.7348 36 16.4804 36.1054 16.2929 36.2929C16.1054 36.4804 16 36.7348 16 37C16 37.7956 15.6839 38.5587 15.1213 39.1213C14.5587 39.6839 13.7956 40 13 40C12.7348 40 12.4804 40.1054 12.2929 40.2929C12.1054 40.4804 12 40.7348 12 41C12 41.2652 12.1054 41.5196 12.2929 41.7071C12.4804 41.8946 12.7348 42 13 42C13.7956 42 14.5587 42.3161 15.1213 42.8787C15.6839 43.4413 16 44.2044 16 45C16 45.2652 16.1054 45.5196 16.2929 45.7071C16.4804 45.8946 16.7348 46 17 46C17.2652 46 17.5196 45.8946 17.7071 45.7071C17.8946 45.5196 18 45.2652 18 45C18 44.2044 18.3161 43.4413 18.8787 42.8787C19.4413 42.3161 20.2044 42 21 42C21.2652 42 21.5196 41.8946 21.7071 41.7071C21.8946 41.5196 22 41.2652 22 41C22 40.7348 21.8946 40.4804 21.7071 40.2929C21.5196 40.1054 21.2652 40 21 40C20.2044 40 19.4413 39.6839 18.8787 39.1213C18.3161 38.5587 18 37.7956 18 37C18 36.7348 17.8946 36.4804 17.7071 36.2929C17.5196 36.1054 17.2652 36 17 36ZM17 42C16.7156 41.6211 16.3789 41.2844 16 41C16.3789 40.7156 16.7156 40.3789 17 40C17.2844 40.3789 17.6211 40.7156 18 41C17.6211 41.2844 17.2844 41.6211 17 42Z" fill="#323232"/>
<path d="M48 14C47.7348 14 47.4804 14.1054 47.2929 14.2929C47.1054 14.4804 47 14.7348 47 15C47 15.2652 47.1054 15.5196 47.2929 15.7071C47.4804 15.8946 47.7348 16 48 16H49V17C49 17.2652 49.1054 17.5196 49.2929 17.7071C49.4804 17.8946 49.7348 18 50 18C50.2652 18 50.5196 17.8946 50.7071 17.7071C50.8946 17.5196 51 17.2652 51 17V16H52C52.2652 16 52.5196 15.8946 52.7071 15.7071C52.8946 15.5196 53 15.2652 53 15C53 14.7348 52.8946 14.4804 52.7071 14.2929C52.5196 14.1054 52.2652 14 52 14H51V13C51 12.7348 50.8946 12.4804 50.7071 12.2929C50.5196 12.1054 50.2652 12 50 12C49.7348 12 49.4804 12.1054 49.2929 12.2929C49.1054 12.4804 49 12.7348 49 13V14H48Z" fill="#323232"/>
<path d="M30 32C30.2652 32 30.5196 31.8946 30.7071 31.7071C30.8946 31.5196 31 31.2652 31 31V30H32C32.2652 30 32.5196 29.8946 32.7071 29.7071C32.8946 29.5196 33 29.2652 33 29C33 28.7348 32.8946 28.4804 32.7071 28.2929C32.5196 28.1054 32.2652 28 32 28H31V27C31 26.7348 30.8946 26.4804 30.7071 26.2929C30.5196 26.1054 30.2652 26 30 26C29.7348 26 29.4804 26.1054 29.2929 26.2929C29.1054 26.4804 29 26.7348 29 27V28H28C27.7348 28 27.4804 28.1054 27.2929 28.2929C27.1054 28.4804 27 28.7348 27 29C27 29.2652 27.1054 29.5196 27.2929 29.7071C27.4804 29.8946 27.7348 30 28 30H29V31C29 31.2652 29.1054 31.5196 29.2929 31.7071C29.4804 31.8946 29.7348 32 30 32Z" fill="#323232"/>
<path d="M36 6H37V7C37 7.26522 37.1054 7.51957 37.2929 7.70711C37.4804 7.89464 37.7348 8 38 8C38.2652 8 38.5196 7.89464 38.7071 7.70711C38.8946 7.51957 39 7.26522 39 7V6H40C40.2652 6 40.5196 5.89464 40.7071 5.70711C40.8946 5.51957 41 5.26522 41 5C41 4.73478 40.8946 4.48043 40.7071 4.29289C40.5196 4.10536 40.2652 4 40 4H39V3C39 2.73478 38.8946 2.48043 38.7071 2.29289C38.5196 2.10536 38.2652 2 38 2C37.7348 2 37.4804 2.10536 37.2929 2.29289C37.1054 2.48043 37 2.73478 37 3V4H36C35.7348 4 35.4804 4.10536 35.2929 4.29289C35.1054 4.48043 35 4.73478 35 5C35 5.26522 35.1054 5.51957 35.2929 5.70711C35.4804 5.89464 35.7348 6 36 6Z" fill="#323232"/>
<path d="M6 14C5.73478 14 5.48043 14.1054 5.29289 14.2929C5.10536 14.4804 5 14.7348 5 15C5 15.2652 5.10536 15.5196 5.29289 15.7071C5.48043 15.8946 5.73478 16 6 16H7V17C7 17.2652 7.10536 17.5196 7.29289 17.7071C7.48043 17.8946 7.73478 18 8 18C8.26522 18 8.51957 17.8946 8.70711 17.7071C8.89464 17.5196 9 17.2652 9 17V16H10C10.2652 16 10.5196 15.8946 10.7071 15.7071C10.8946 15.5196 11 15.2652 11 15C11 14.7348 10.8946 14.4804 10.7071 14.2929C10.5196 14.1054 10.2652 14 10 14H9V13C9 12.7348 8.89464 12.4804 8.70711 12.2929C8.51957 12.1054 8.26522 12 8 12C7.73478 12 7.48043 12.1054 7.29289 12.2929C7.10536 12.4804 7 12.7348 7 13V14H6Z" fill="#323232"/>
<path d="M47 8C47.5523 8 48 7.55228 48 7C48 6.44772 47.5523 6 47 6C46.4477 6 46 6.44772 46 7C46 7.55228 46.4477 8 47 8Z" fill="#323232"/>
<path d="M19 29C19.5523 29 20 28.5523 20 28C20 27.4477 19.5523 27 19 27C18.4477 27 18 27.4477 18 28C18 28.5523 18.4477 29 19 29Z" fill="#323232"/>
<path d="M5 6C5.55228 6 6 5.55228 6 5C6 4.44772 5.55228 4 5 4C4.44772 4 4 4.44772 4 5C4 5.55228 4.44772 6 5 6Z" fill="#323232"/>
</svg>
