<?xml version="1.0" encoding="UTF-8" standalone="no"?> <svg width="64" height="64" viewBox="0 0 64 64" fill="none" xmlns="http://www.w3.org/2000/svg">
<path d="M13 11H51C53.6522 11 56.1957 12.0536 58.0711 13.9289C59.9464 15.8043 61 18.3478 61 21V29H3V21C3 18.3478 4.05357 15.8043 5.92893 13.9289C7.8043 12.0536 10.3478 11 13 11V11Z" fill="#F9E109"/>
<path d="M13.389 14.513C14.327 13.4105 15.4935 12.5253 16.8078 11.9187C18.122 11.3121 19.5525 10.9986 21 11H13C10.3478 11 7.8043 12.0536 5.92893 13.9289C4.05357 15.8043 3 18.3478 3 21V29H61V21H16.523C15.7686 21.0054 15.0281 20.7965 14.3876 20.3978C13.7472 19.9991 13.233 19.4268 12.9048 18.7475C12.5766 18.0682 12.4478 17.3097 12.5336 16.5601C12.6193 15.8106 12.9159 15.1007 13.389 14.513V14.513Z" fill="#FCBC04"/>
<path d="M61 29H3V61H61V29Z" fill="#FCBC04"/>
<path d="M61 31V29H3V61H61V52H28C23.7565 52 19.6869 50.3143 16.6863 47.3137C13.6857 44.3131 12 40.2435 12 36V31H61Z" fill="#E59730"/>
<path d="M57 52V38C55.6739 38 54.4021 37.4732 53.4645 36.5355C52.5268 35.5979 52 34.3261 52 33H12C12 33.6566 11.8707 34.3068 11.6194 34.9134C11.3681 35.52 10.9998 36.0712 10.5355 36.5355C10.0712 36.9998 9.52004 37.3681 8.91342 37.6194C8.30679 37.8707 7.65661 38 7 38V52C7.65661 52 8.30679 52.1293 8.91342 52.3806C9.52004 52.6319 10.0712 53.0002 10.5355 53.4645C10.9998 53.9288 11.3681 54.48 11.6194 55.0866C11.8707 55.6932 12 56.3434 12 57H52C52 55.6739 52.5268 54.4021 53.4645 53.4645C54.4021 52.5268 55.6739 52 57 52Z" fill="#F89C8D"/>
<path d="M17 11H47C49.6522 11 52.1957 12.0536 54.0711 13.9289C55.9464 15.8043 57 18.3478 57 21V25H7V21C7 18.3478 8.05357 15.8043 9.92893 13.9289C11.8043 12.0536 14.3478 11 17 11V11Z" fill="#F89C8D"/>
<path d="M12 36V33C12 33.6566 11.8707 34.3068 11.6194 34.9134C11.3681 35.52 10.9998 36.0712 10.5355 36.5355C10.0712 36.9998 9.52004 37.3681 8.91342 37.6194C8.30679 37.8707 7.65661 38 7 38V52C7.65661 52 8.30679 52.1293 8.91342 52.3806C9.52004 52.6319 10.0712 53.0002 10.5355 53.4645C10.9998 53.9288 11.3681 54.48 11.6194 55.0866C11.8707 55.6932 12 56.3434 12 57H52C52 55.6739 52.5268 54.4021 53.4645 53.4645C54.4021 52.5268 55.6739 52 57 52H28C23.7565 52 19.6869 50.3143 16.6863 47.3137C13.6857 44.3131 12 40.2435 12 36Z" fill="#F8664F"/>
<path d="M13.389 14.513C14.327 13.4105 15.4935 12.5253 16.8078 11.9187C18.122 11.3121 19.5525 10.9986 21 11H17C14.3478 11 11.8043 12.0536 9.92893 13.9289C8.05357 15.8043 7 18.3478 7 21V25H57V21H16.523C15.7686 21.0054 15.0281 20.7965 14.3876 20.3978C13.7472 19.9991 13.233 19.4268 12.9048 18.7475C12.5766 18.0682 12.4478 17.3097 12.5336 16.5601C12.6193 15.8106 12.9159 15.1007 13.389 14.513V14.513Z" fill="#F8664F"/>
<path d="M21 29H43V47C43 47.5304 42.7893 48.0391 42.4142 48.4142C42.0391 48.7893 41.5304 49 41 49H23C22.4696 49 21.9609 48.7893 21.5858 48.4142C21.2107 48.0391 21 47.5304 21 47V29Z" fill="#F9E109"/>
<path d="M37 45C34.8783 45 32.8434 44.1571 31.3431 42.6569C29.8429 41.1566 29 39.1217 29 37V29H21V47C21 47.5304 21.2107 48.0391 21.5858 48.4142C21.9609 48.7893 22.4696 49 23 49H41C41.5304 49 42.0391 48.7893 42.4142 48.4142C42.7893 48.0391 43 47.5304 43 47V45H37Z" fill="#FCBC04"/>
<path d="M21 29V31C21.5304 31 22.0391 31.2107 22.4142 31.5858C22.7893 31.9609 23 32.4696 23 33C23 34.0609 23.4214 35.0783 24.1716 35.8284C24.9217 36.5786 25.9391 37 27 37H35C36.0609 37 37.0783 36.5786 37.8284 35.8284C38.5786 35.0783 39 34.0609 39 33V29H21Z" fill="#E59730"/>
<path d="M39 11H25V23H39V11Z" fill="#F9E109"/>
<path d="M25 23H39V33C39 33.5304 38.7893 34.0391 38.4142 34.4142C38.0391 34.7893 37.5304 35 37 35H27C26.4696 35 25.9609 34.7893 25.5858 34.4142C25.2107 34.0391 25 33.5304 25 33V23Z" fill="#F9E109"/>
<path d="M35 35H29C27.8954 35 27 35.8954 27 37V43C27 44.1046 27.8954 45 29 45H35C36.1046 45 37 44.1046 37 43V37C37 35.8954 36.1046 35 35 35Z" fill="#F89C8D"/>
<path d="M29 37V35C28.4696 35 27.9609 35.2107 27.5858 35.5858C27.2107 35.9609 27 36.4696 27 37V43C27 43.5304 27.2107 44.0391 27.5858 44.4142C27.9609 44.7893 28.4696 45 29 45H35C35.5304 45 36.0391 44.7893 36.4142 44.4142C36.7893 44.0391 37 43.5304 37 43H35C33.4087 43 31.8826 42.3679 30.7574 41.2426C29.6321 40.1174 29 38.5913 29 37Z" fill="#F8664F"/>
<path d="M29 11H25V23H29V11Z" fill="#FCBC04"/>
<path d="M29 23H25V33C25 33.5304 25.2107 34.0391 25.5858 34.4142C25.9609 34.7893 26.4696 35 27 35H37C37.5304 35 38.0391 34.7893 38.4142 34.4142C38.7893 34.0391 39 33.5304 39 33V31H37C34.8783 31 32.8434 30.1571 31.3431 28.6569C29.8429 27.1566 29 25.1217 29 23Z" fill="#FCBC04"/>
<path d="M39 23H29V25H39V23Z" fill="#FCBC04"/>
<path d="M39 21H29V23H39V21Z" fill="#FCBC04"/>
<path d="M12 17H16C16.2652 17 16.5196 16.8946 16.7071 16.7071C16.8946 16.5196 17 16.2652 17 16C17 15.7348 16.8946 15.4804 16.7071 15.2929C16.5196 15.1054 16.2652 15 16 15H12C11.7348 15 11.4804 15.1054 11.2929 15.2929C11.1054 15.4804 11 15.7348 11 16C11 16.2652 11.1054 16.5196 11.2929 16.7071C11.4804 16.8946 11.7348 17 12 17V17Z" fill="#39519D"/>
<path d="M48 17C48.2652 17 48.5196 16.8946 48.7071 16.7071C48.8946 16.5196 49 16.2652 49 16C49 15.7348 48.8946 15.4804 48.7071 15.2929C48.5196 15.1054 48.2652 15 48 15H45C44.7348 15 44.4804 15.1054 44.2929 15.2929C44.1054 15.4804 44 15.7348 44 16C44 16.2652 44.1054 16.5196 44.2929 16.7071C44.4804 16.8946 44.7348 17 45 17H48Z" fill="#39519D"/>
<path d="M19 37C19 36.7348 18.8946 36.4804 18.7071 36.2929C18.5196 36.1054 18.2652 36 18 36H15C14.7348 36 14.4804 36.1054 14.2929 36.2929C14.1054 36.4804 14 36.7348 14 37C14 37.2652 14.1054 37.5196 14.2929 37.7071C14.4804 37.8946 14.7348 38 15 38H18C18.2652 38 18.5196 37.8946 18.7071 37.7071C18.8946 37.5196 19 37.2652 19 37Z" fill="#39519D"/>
<path d="M11 44C10.7348 44 10.4804 44.1054 10.2929 44.2929C10.1054 44.4804 10 44.7348 10 45C10 45.2652 10.1054 45.5196 10.2929 45.7071C10.4804 45.8946 10.7348 46 11 46H16C16.2652 46 16.5196 45.8946 16.7071 45.7071C16.8946 45.5196 17 45.2652 17 45C17 44.7348 16.8946 44.4804 16.7071 44.2929C16.5196 44.1054 16.2652 44 16 44H11Z" fill="#39519D"/>
<path d="M34 52C33.7348 52 33.4804 52.1054 33.2929 52.2929C33.1054 52.4804 33 52.7348 33 53C33 53.2652 33.1054 53.5196 33.2929 53.7071C33.4804 53.8946 33.7348 54 34 54H49C49.2652 54 49.5196 53.8946 49.7071 53.7071C49.8946 53.5196 50 53.2652 50 53C50 52.7348 49.8946 52.4804 49.7071 52.2929C49.5196 52.1054 49.2652 52 49 52H34Z" fill="#39519D"/>
<path d="M18 52C17.7348 52 17.4804 52.1054 17.2929 52.2929C17.1054 52.4804 17 52.7348 17 53C17 53.2652 17.1054 53.5196 17.2929 53.7071C17.4804 53.8946 17.7348 54 18 54H28C28.2652 54 28.5196 53.8946 28.7071 53.7071C28.8946 53.5196 29 53.2652 29 53C29 52.7348 28.8946 52.4804 28.7071 52.2929C28.5196 52.1054 28.2652 52 28 52H18Z" fill="#39519D"/>
<path d="M51 10H43C42.7348 10 42.4804 10.1054 42.2929 10.2929C42.1054 10.4804 42 10.7348 42 11C42 11.2652 42.1054 11.5196 42.2929 11.7071C42.4804 11.8946 42.7348 12 43 12H47C49.2126 12.003 51.3468 12.8201 52.9957 14.2954C54.6446 15.7708 55.693 17.8013 55.941 20H53C52.7348 20 52.4804 20.1054 52.2929 20.2929C52.1054 20.4804 52 20.7348 52 21C52 21.2652 52.1054 21.5196 52.2929 21.7071C52.4804 21.8946 52.7348 22 53 22H56V24H40V22H48C48.2652 22 48.5196 21.8946 48.7071 21.7071C48.8946 21.5196 49 21.2652 49 21C49 20.7348 48.8946 20.4804 48.7071 20.2929C48.5196 20.1054 48.2652 20 48 20H40V16H41C41.2652 16 41.5196 15.8946 41.7071 15.7071C41.8946 15.5196 42 15.2652 42 15C42 14.7348 41.8946 14.4804 41.7071 14.2929C41.5196 14.1054 41.2652 14 41 14H40V11C40 10.7348 39.8946 10.4804 39.7071 10.2929C39.5196 10.1054 39.2652 10 39 10H13C10.0837 10.0034 7.28778 11.1635 5.22563 13.2256C3.16347 15.2878 2.00344 18.0837 2 21V48C2 48.2652 2.10536 48.5196 2.29289 48.7071C2.48043 48.8946 2.73478 49 3 49C3.26522 49 3.51957 48.8946 3.70711 48.7071C3.89464 48.5196 4 48.2652 4 48V30H20V32H12C11.7348 32 11.4804 32.1054 11.2929 32.2929C11.1054 32.4804 11 32.7348 11 33C11 34.0609 10.5786 35.0783 9.82843 35.8284C9.07828 36.5786 8.06087 37 7 37C6.73478 37 6.48043 37.1054 6.29289 37.2929C6.10536 37.4804 6 37.7348 6 38V52C6 52.2652 6.10536 52.5196 6.29289 52.7071C6.48043 52.8946 6.73478 53 7 53C8.06087 53 9.07828 53.4214 9.82843 54.1716C10.5786 54.9217 11 55.9391 11 57C11 57.2652 11.1054 57.5196 11.2929 57.7071C11.4804 57.8946 11.7348 58 12 58H52C52.2652 58 52.5196 57.8946 52.7071 57.7071C52.8946 57.5196 53 57.2652 53 57C53 55.9391 53.4214 54.9217 54.1716 54.1716C54.9217 53.4214 55.9391 53 57 53C57.2652 53 57.5196 52.8946 57.7071 52.7071C57.8946 52.5196 58 52.2652 58 52V38C58 37.7348 57.8946 37.4804 57.7071 37.2929C57.5196 37.1054 57.2652 37 57 37C55.9391 37 54.9217 36.5786 54.1716 35.8284C53.4214 35.0783 53 34.0609 53 33C53 32.7348 52.8946 32.4804 52.7071 32.2929C52.5196 32.1054 52.2652 32 52 32H47C46.7348 32 46.4804 32.1054 46.2929 32.2929C46.1054 32.4804 46 32.7348 46 33C46 33.2652 46.1054 33.5196 46.2929 33.7071C46.4804 33.8946 46.7348 34 47 34H51.083C51.2929 35.2277 51.8786 36.36 52.7593 37.2407C53.64 38.1214 54.7723 38.7071 56 38.917V40H51C50.7348 40 50.4804 40.1054 50.2929 40.2929C50.1054 40.4804 50 40.7348 50 41C50 41.2652 50.1054 41.5196 50.2929 41.7071C50.4804 41.8946 50.7348 42 51 42H56V51.083C54.7723 51.2929 53.64 51.8786 52.7593 52.7593C51.8786 53.64 51.2929 54.7723 51.083 56H12.917C12.7071 54.7723 12.1214 53.64 11.2407 52.7593C10.36 51.8786 9.22769 51.2929 8 51.083V50H18C18.2652 50 18.5196 49.8946 18.7071 49.7071C18.8946 49.5196 19 49.2652 19 49C19 48.7348 18.8946 48.4804 18.7071 48.2929C18.5196 48.1054 18.2652 48 18 48H8V42H14C14.2652 42 14.5196 41.8946 14.7071 41.7071C14.8946 41.5196 15 41.2652 15 41C15 40.7348 14.8946 40.4804 14.7071 40.2929C14.5196 40.1054 14.2652 40 14 40H8V38.917C9.22769 38.7071 10.36 38.1214 11.2407 37.2407C12.1214 36.36 12.7071 35.2277 12.917 34H20V40H19C18.7348 40 18.4804 40.1054 18.2929 40.2929C18.1054 40.4804 18 40.7348 18 41C18 41.2652 18.1054 41.5196 18.2929 41.7071C18.4804 41.8946 18.7348 42 19 42H20V47C20 47.7956 20.3161 48.5587 20.8787 49.1213C21.4413 49.6839 22.2044 50 23 50H51C51.2652 50 51.5196 49.8946 51.7071 49.7071C51.8946 49.5196 52 49.2652 52 49C52 48.7348 51.8946 48.4804 51.7071 48.2929C51.5196 48.1054 51.2652 48 51 48H43.816C43.9344 47.6797 43.9967 47.3414 44 47V46H52C52.2652 46 52.5196 45.8946 52.7071 45.7071C52.8946 45.5196 53 45.2652 53 45C53 44.7348 52.8946 44.4804 52.7071 44.2929C52.5196 44.1054 52.2652 44 52 44H44V42H46C46.2652 42 46.5196 41.8946 46.7071 41.7071C46.8946 41.5196 47 41.2652 47 41C47 40.7348 46.8946 40.4804 46.7071 40.2929C46.5196 40.1054 46.2652 40 46 40H44V38H49C49.2652 38 49.5196 37.8946 49.7071 37.7071C49.8946 37.5196 50 37.2652 50 37C50 36.7348 49.8946 36.4804 49.7071 36.2929C49.5196 36.1054 49.2652 36 49 36H44V30H61C61.2652 30 61.5196 29.8946 61.7071 29.7071C61.8946 29.5196 62 29.2652 62 29V21C61.9966 18.0837 60.8365 15.2878 58.7744 13.2256C56.7122 11.1635 53.9163 10.0034 51 10ZM36 37V43C36 43.2652 35.8946 43.5196 35.7071 43.7071C35.5196 43.8946 35.2652 44 35 44H29C28.7348 44 28.4804 43.8946 28.2929 43.7071C28.1054 43.5196 28 43.2652 28 43V37C28 36.7348 28.1054 36.4804 28.2929 36.2929C28.4804 36.1054 28.7348 36 29 36H35C35.2652 36 35.5196 36.1054 35.7071 36.2929C35.8946 36.4804 36 36.7348 36 37ZM32 32C32.2652 32 32.5196 31.8946 32.7071 31.7071C32.8946 31.5196 33 31.2652 33 31V30.278C33.303 30.4521 33.555 30.7029 33.7305 31.0052C33.906 31.3074 33.9989 31.6505 34 32V34H30V32C30.0011 31.6505 30.094 31.3074 30.2695 31.0052C30.445 30.7029 30.697 30.4521 31 30.278V31C31 31.2652 31.1054 31.5196 31.2929 31.7071C31.4804 31.8946 31.7348 32 32 32ZM37 34H36V32C35.9967 31.1158 35.7005 30.2576 35.1577 29.5596C34.6149 28.8615 33.8561 28.363 33 28.142V27C33 26.7348 32.8946 26.4804 32.7071 26.2929C32.5196 26.1054 32.2652 26 32 26C31.7348 26 31.4804 26.1054 31.2929 26.2929C31.1054 26.4804 31 26.7348 31 27V28.142C30.1439 28.363 29.3851 28.8615 28.8423 29.5596C28.2995 30.2576 28.0033 31.1158 28 32V34H27C26.7348 34 26.4804 33.8946 26.2929 33.7071C26.1054 33.5196 26 33.2652 26 33V24H38V33C38 33.2652 37.8946 33.5196 37.7071 33.7071C37.5196 33.8946 37.2652 34 37 34ZM24 12V16H21C20.7348 16 20.4804 16.1054 20.2929 16.2929C20.1054 16.4804 20 16.7348 20 17C20 17.2652 20.1054 17.5196 20.2929 17.7071C20.4804 17.8946 20.7348 18 21 18H25C25.2652 18 25.5196 17.8946 25.7071 17.7071C25.8946 17.5196 26 17.2652 26 17V12H38V22H26V21C26 20.7348 25.8946 20.4804 25.7071 20.2929C25.5196 20.1054 25.2652 20 25 20H17C16.7348 20 16.4804 20.1054 16.2929 20.2929C16.1054 20.4804 16 20.7348 16 21C16 21.2652 16.1054 21.5196 16.2929 21.7071C16.4804 21.8946 16.7348 22 17 22H24V24H8V22H11C11.2652 22 11.5196 21.8946 11.7071 21.7071C11.8946 21.5196 12 21.2652 12 21C12 20.7348 11.8946 20.4804 11.7071 20.2929C11.5196 20.1054 11.2652 20 11 20H8.059C8.30703 17.8013 9.35541 15.7708 11.0043 14.2954C12.6532 12.8201 14.7874 12.003 17 12H24ZM42 47C42 47.2652 41.8946 47.5196 41.7071 47.7071C41.5196 47.8946 41.2652 48 41 48H23C22.7348 48 22.4804 47.8946 22.2929 47.7071C22.1054 47.5196 22 47.2652 22 47V29C22 28.7348 21.8946 28.4804 21.7071 28.2929C21.5196 28.1054 21.2652 28 21 28H4V21C4.00325 19.1422 4.58089 17.3309 5.65378 15.8142C6.72667 14.2975 8.2423 13.1497 9.993 12.528C8.74404 13.5585 7.73839 14.8523 7.04807 16.317C6.35776 17.7816 5.99986 19.3808 6 21V25C6 25.2652 6.10536 25.5196 6.29289 25.7071C6.48043 25.8946 6.73478 26 7 26H24V33C24.0028 33.6576 24.2216 34.296 24.6227 34.8171C25.0238 35.3382 25.585 35.713 26.22 35.884C26.0758 36.2385 26.0011 36.6173 26 37V43C26 43.7956 26.3161 44.5587 26.8787 45.1213C27.4413 45.6839 28.2044 46 29 46H35C35.7956 46 36.5587 45.6839 37.1213 45.1213C37.6839 44.5587 38 43.7956 38 43V37C37.9989 36.6173 37.9242 36.2385 37.78 35.884C38.415 35.713 38.9762 35.3382 39.3773 34.8171C39.7784 34.296 39.9972 33.6576 40 33V30H42V47ZM60 28H40V26H57C57.2652 26 57.5196 25.8946 57.7071 25.7071C57.8946 25.5196 58 25.2652 58 25V21C58.0001 19.3808 57.6422 17.7816 56.9519 16.317C56.2616 14.8523 55.256 13.5585 54.007 12.528C55.7577 13.1497 57.2733 14.2975 58.3462 15.8142C59.4191 17.3309 59.9968 19.1422 60 21V28Z" fill="#39519D"/>
<path d="M61 32C60.7348 32 60.4804 32.1054 60.2929 32.2929C60.1054 32.4804 60 32.7348 60 33V60H4V52C4 51.7348 3.89464 51.4804 3.70711 51.2929C3.51957 51.1054 3.26522 51 3 51C2.73478 51 2.48043 51.1054 2.29289 51.2929C2.10536 51.4804 2 51.7348 2 52V61C2 61.2652 2.10536 61.5196 2.29289 61.7071C2.48043 61.8946 2.73478 62 3 62H61C61.2652 62 61.5196 61.8946 61.7071 61.7071C61.8946 61.5196 62 61.2652 62 61V33C62 32.7348 61.8946 32.4804 61.7071 32.2929C61.5196 32.1054 61.2652 32 61 32V32Z" fill="#39519D"/>
<path d="M32 16C32.5523 16 33 15.5523 33 15C33 14.4477 32.5523 14 32 14C31.4477 14 31 14.4477 31 15C31 15.5523 31.4477 16 32 16Z" fill="#39519D"/>
<path d="M32 20C32.5523 20 33 19.5523 33 19C33 18.4477 32.5523 18 32 18C31.4477 18 31 18.4477 31 19C31 19.5523 31.4477 20 32 20Z" fill="#39519D"/>
<path d="M32 42C32.2652 42 32.5196 41.8946 32.7071 41.7071C32.8946 41.5196 33 41.2652 33 41V39C33 38.7348 32.8946 38.4804 32.7071 38.2929C32.5196 38.1054 32.2652 38 32 38C31.7348 38 31.4804 38.1054 31.2929 38.2929C31.1054 38.4804 31 38.7348 31 39V41C31 41.2652 31.1054 41.5196 31.2929 41.7071C31.4804 41.8946 31.7348 42 32 42Z" fill="#39519D"/>
</svg>
