<?xml version="1.0" encoding="UTF-8" standalone="no"?> <svg width="64" height="64" viewBox="0 0 64 64" fill="none" xmlns="http://www.w3.org/2000/svg">
<path d="M50 15L46 17L50 18V45L46 48L50 49V53H10V48L14 46L10 45V41L13 39L10 38V32L13 30L10 29V21L13 19L10 17V11H50V15Z" fill="white"/>
<path d="M50 23.57V41.34C46.99 45.01 44.53 45.74 42.76 44.72C40.37 43.34 40.12 39.29 44.68 31.4C46.2701 28.6701 48.0477 26.0538 50 23.57V23.57Z" fill="#CFF09E"/>
<path d="M18.76 15.76C18.2002 16.3148 17.7563 16.9753 17.4541 17.7032C17.152 18.4311 16.9976 19.2119 17 20C17.0016 26.3647 19.5307 32.4683 24.0312 36.9688C28.5317 41.4693 34.6353 43.9984 41 44H50V45L46 48L50 49V53H10V48L14 46L10 45V41L13 39L10 38V32L13 30L10 29V21L13 19L10 17V11H50V14H23C22.2119 13.9976 21.4311 14.152 20.7032 14.4541C19.9753 14.7563 19.3148 15.2002 18.76 15.76Z" fill="#CFF09E"/>
<path d="M55 5H5C3.89543 5 3 5.89543 3 7C3 8.10457 3.89543 9 5 9H55C56.1046 9 57 8.10457 57 7C57 5.89543 56.1046 5 55 5Z" fill="#79BD9A"/>
<path d="M50 3H10C8.89543 3 8 3.89543 8 5V9C8 10.1046 8.89543 11 10 11H50C51.1046 11 52 10.1046 52 9V5C52 3.89543 51.1046 3 50 3Z" fill="white"/>
<path d="M55 55H5C3.89543 55 3 55.8954 3 57C3 58.1046 3.89543 59 5 59H55C56.1046 59 57 58.1046 57 57C57 55.8954 56.1046 55 55 55Z" fill="#79BD9A"/>
<path d="M50 53H10C8.89543 53 8 53.8954 8 55V59C8 60.1046 8.89543 61 10 61H50C51.1046 61 52 60.1046 52 59V55C52 53.8954 51.1046 53 50 53Z" fill="white"/>
<path d="M54.337 33.4C49.781 41.292 46.148 43.106 43.757 41.726C41.366 40.346 41.12 36.29 45.677 28.4C50.234 20.51 57.865 11.766 60.257 13.147C62.649 14.528 58.893 25.507 54.337 33.4Z" fill="white"/>
<path d="M54.34 33.4C49.78 41.29 46.15 43.1 43.76 41.72C42.52 41 41.86 39.57 42.15 37.26C42.3333 37.4383 42.5382 37.5928 42.76 37.72C45.15 39.1 48.78 37.29 53.34 29.4C56.43 24.04 59.16 17.24 59.83 13.01H59.84C59.9886 13.0179 60.1329 13.0626 60.26 13.14C62.65 14.53 58.89 25.51 54.34 33.4Z" fill="#CFF09E"/>
<path d="M36 23H24L22 15L27 18L30 15L33 18L38 15L36 23Z" fill="#A8DBA8"/>
<path d="M52 7.76V9C51.9984 9.52995 51.7872 10.0377 51.4125 10.4125C51.0377 10.7872 50.5299 10.9984 50 11H10C9.47005 10.9984 8.96227 10.7872 8.58753 10.4125C8.2128 10.0377 8.00158 9.52995 8 9V5C8.00158 4.47005 8.2128 3.96227 8.58753 3.58753C8.96227 3.2128 9.47005 3.00158 10 3H12.13C12.1899 4.28291 12.7419 5.49339 13.6712 6.37987C14.6005 7.26634 15.8357 7.76063 17.12 7.76H52Z" fill="#CFF09E"/>
<path d="M52 57.76V59C51.9984 59.5299 51.7872 60.0377 51.4125 60.4125C51.0377 60.7872 50.5299 60.9984 50 61H10C9.47005 60.9984 8.96227 60.7872 8.58753 60.4125C8.2128 60.0377 8.00158 59.5299 8 59V55C8.00158 54.4701 8.2128 53.9623 8.58753 53.5875C8.96227 53.2128 9.47005 53.0016 10 53H12.13C12.1899 54.2829 12.7419 55.4934 13.6712 56.3799C14.6005 57.2663 15.8357 57.7606 17.12 57.76H52Z" fill="#CFF09E"/>
<path d="M51 45V39.875C52.6076 38.0377 54.0155 36.0348 55.2 33.9C57.5272 29.8527 59.4223 25.5718 60.854 21.128C62.409 16.111 62.376 13.217 60.754 12.28C58.554 11.013 54.611 14.543 50.997 18.973V18C50.9969 17.7769 50.9223 17.5603 50.785 17.3845C50.6476 17.2088 50.4554 17.084 50.239 17.03L48.862 16.686L50.444 15.895C50.6108 15.8124 50.7512 15.6848 50.8494 15.5267C50.9477 15.3685 50.9998 15.1861 51 15V11.816C51.4182 11.6666 51.7981 11.4262 52.1122 11.1122C52.4262 10.7981 52.6666 10.4182 52.816 10H55C55.7944 9.99606 56.5552 9.67872 57.117 9.11696C57.6787 8.55521 57.9961 7.79443 58 7C58 6.20435 57.6839 5.44129 57.1213 4.87868C56.5587 4.31607 55.7956 4 55 4H52.816C52.6099 3.41709 52.2288 2.91209 51.7247 2.55409C51.2206 2.19608 50.6183 2.00256 50 2H10C9.38174 2.00256 8.77937 2.19608 8.2753 2.55409C7.77123 2.91209 7.39008 3.41709 7.184 4H5C4.2054 4.00342 3.44433 4.32059 2.88246 4.88246C2.32059 5.44433 2.00342 6.2054 2 7C2 7.79565 2.31607 8.55871 2.87868 9.12132C3.44129 9.68393 4.20435 10 5 10H7.184C7.3334 10.4182 7.5738 10.7981 7.88785 11.1122C8.2019 11.4262 8.58175 11.6666 9 11.816V17C8.99998 17.1646 9.04058 17.3266 9.11821 17.4718C9.19583 17.6169 9.30808 17.7407 9.445 17.832L11.2 19L9.445 20.168C9.30808 20.2593 9.19583 20.3831 9.11821 20.5282C9.04058 20.6734 8.99998 20.8354 9 21V29C9.00016 29.2098 9.0663 29.4142 9.18905 29.5844C9.3118 29.7545 9.48496 29.8817 9.684 29.948L10.744 30.302L9.444 31.168C9.30727 31.2595 9.19521 31.3832 9.11776 31.5284C9.04032 31.6735 8.99987 31.8355 9 32V38C9.00016 38.2098 9.0663 38.4142 9.18905 38.5844C9.3118 38.7545 9.48496 38.8817 9.684 38.948L10.744 39.302L9.444 40.168C9.30727 40.2595 9.19521 40.3832 9.11776 40.5284C9.04032 40.6735 8.99987 40.8355 9 41V45C9.00001 45.2229 9.0745 45.4395 9.21166 45.6152C9.34881 45.791 9.54075 45.9158 9.757 45.97L11.135 46.314L9.553 47.105C9.38677 47.1881 9.24697 47.3158 9.14929 47.4739C9.05161 47.632 8.99991 47.8142 9 48V52.184C8.58175 52.3334 8.2019 52.5738 7.88785 52.8878C7.5738 53.2019 7.3334 53.5818 7.184 54H5C4.2054 54.0034 3.44433 54.3206 2.88246 54.8825C2.32059 55.4443 2.00342 56.2054 2 57C2 57.7956 2.31607 58.5587 2.87868 59.1213C3.44129 59.6839 4.20435 60 5 60H7.184C7.39008 60.5829 7.77123 61.0879 8.2753 61.4459C8.77937 61.8039 9.38174 61.9974 10 62H50C50.6183 61.9974 51.2206 61.8039 51.7247 61.4459C52.2288 61.0879 52.6099 60.5829 52.816 60H55C55.7944 59.9961 56.5552 59.6787 57.117 59.117C57.6787 58.5552 57.9961 57.7944 58 57C58 56.2044 57.6839 55.4413 57.1213 54.8787C56.5587 54.3161 55.7956 54 55 54H52.816C52.6666 53.5818 52.4262 53.2019 52.1122 52.8878C51.7981 52.5738 51.4182 52.3334 51 52.184V49C50.9999 48.7769 50.9253 48.5603 50.7879 48.3845C50.6506 48.2088 50.4584 48.084 50.242 48.03L48.281 47.539L50.6 45.8C50.7242 45.7069 50.825 45.5861 50.8944 45.4472C50.9639 45.3084 51 45.1552 51 45ZM59.56 13.965C59.6296 13.9616 59.6988 13.9775 59.76 14.011C59.96 14.128 60.46 15.659 58.95 20.534C57.5621 24.8366 55.7256 28.9814 53.471 32.9C50.381 38.253 47.41 41.195 45.255 41.131L56.123 22.306C56.1897 22.1922 56.2332 22.0664 56.2511 21.9357C56.269 21.8051 56.2608 21.6722 56.2271 21.5447C56.1934 21.4172 56.1348 21.2976 56.0547 21.1928C55.9746 21.0881 55.8745 21.0002 55.7603 20.9342C55.6461 20.8683 55.52 20.8256 55.3892 20.8086C55.2584 20.7916 55.1256 20.8006 54.9983 20.8352C54.871 20.8697 54.7519 20.9291 54.6476 21.0099C54.5434 21.0907 54.4562 21.1914 54.391 21.306L43.534 40.11C43.1195 39.3427 42.9691 38.4603 43.106 37.599C43.317 35.409 44.474 32.481 46.543 28.899C51.535 20.253 57.98 13.965 59.56 13.965ZM56 7C56.0003 7.13352 55.9732 7.26567 55.9204 7.3883C55.8676 7.51093 55.7902 7.62144 55.693 7.713C55.6027 7.80495 55.4948 7.87775 55.3757 7.92706C55.2567 7.97637 55.1289 8.00118 55 8H53V6H55C55.2652 6 55.5196 6.10536 55.7071 6.29289C55.8946 6.48043 56 6.73478 56 7ZM9 5C9 4.73478 9.10536 4.48043 9.29289 4.29289C9.48043 4.10536 9.73478 4 10 4H50C50.2652 4 50.5196 4.10536 50.7071 4.29289C50.8946 4.48043 51 4.73478 51 5V9C51 9.26522 50.8946 9.51957 50.7071 9.70711C50.5196 9.89464 50.2652 10 50 10H10C9.73478 10 9.48043 9.89464 9.29289 9.70711C9.10536 9.51957 9 9.26522 9 9V5ZM4 7C3.99955 6.86655 4.02647 6.73442 4.0791 6.61179C4.13174 6.48915 4.20896 6.37861 4.306 6.287C4.39663 6.19521 4.50473 6.12251 4.62394 6.07322C4.74314 6.02392 4.87101 5.99903 5 6H7V8H5C4.73478 8 4.48043 7.89464 4.29289 7.70711C4.10536 7.51957 4 7.26522 4 7ZM4 57C3.99955 56.8665 4.02647 56.7344 4.0791 56.6118C4.13174 56.4892 4.20896 56.3786 4.306 56.287C4.39663 56.1952 4.50473 56.1225 4.62394 56.0732C4.74314 56.0239 4.87101 55.999 5 56H7V58H5C4.73478 58 4.48043 57.8946 4.29289 57.7071C4.10536 57.5196 4 57.2652 4 57ZM51 59C51 59.2652 50.8946 59.5196 50.7071 59.7071C50.5196 59.8946 50.2652 60 50 60H10C9.73478 60 9.48043 59.8946 9.29289 59.7071C9.10536 59.5196 9 59.2652 9 59V55C9 54.7348 9.10536 54.4804 9.29289 54.2929C9.48043 54.1054 9.73478 54 10 54H50C50.2652 54 50.5196 54.1054 50.7071 54.2929C50.8946 54.4804 51 54.7348 51 55V59ZM56 57C56.0003 57.1335 55.9732 57.2657 55.9204 57.3883C55.8676 57.5109 55.7902 57.6214 55.693 57.713C55.6027 57.8049 55.4948 57.8778 55.3757 57.9271C55.2567 57.9764 55.1289 58.0012 55 58H53V56H55C55.2652 56 55.5196 56.1054 55.7071 56.2929C55.8946 56.4804 56 56.7348 56 57ZM45.4 47.2C45.2488 47.3135 45.1329 47.4674 45.0657 47.6441C44.9985 47.8207 44.9827 48.0128 45.0201 48.198C45.0576 48.3833 45.1468 48.5541 45.2774 48.6908C45.408 48.8274 45.5746 48.9242 45.758 48.97L49 49.781V52H11V48.618L14.447 46.9C14.63 46.8091 14.7807 46.6643 14.8789 46.4851C14.9771 46.306 15.018 46.101 14.9962 45.8979C14.9744 45.6947 14.891 45.5031 14.757 45.3489C14.6231 45.1946 14.4451 45.0851 14.247 45.035L11 44.219V41.535L13.555 39.835C13.7105 39.7311 13.8338 39.5856 13.9108 39.4151C13.9878 39.2446 14.0154 39.0559 13.9905 38.8705C13.9656 38.6851 13.8892 38.5104 13.77 38.3662C13.6507 38.222 13.4935 38.1142 13.316 38.055L11 37.279V32.535L13.555 30.835C13.7105 30.7311 13.8338 30.5856 13.9108 30.4151C13.9878 30.2446 14.0154 30.0559 13.9905 29.8705C13.9656 29.6851 13.8892 29.5104 13.77 29.3662C13.6507 29.222 13.4935 29.1142 13.316 29.055L11 28.279V21.535L13.555 19.835C13.692 19.7437 13.8043 19.62 13.8819 19.4748C13.9596 19.3297 14.0002 19.1676 14.0002 19.003C14.0002 18.8384 13.9596 18.6763 13.8819 18.5312C13.8043 18.386 13.692 18.2623 13.555 18.171L11 16.465V12H49V14.382L45.553 16.105C45.3701 16.1963 45.2196 16.3415 45.1217 16.521C45.0239 16.7005 44.9834 16.9057 45.0057 17.1089C45.0281 17.3121 45.1122 17.5036 45.2467 17.6576C45.3812 17.8115 45.5596 17.9206 45.758 17.97L49 18.781V21.552C47.4905 23.5911 46.0921 25.7102 44.811 27.9C42.598 31.733 41.354 34.933 41.116 37.408C40.888 39.775 41.596 41.165 42.452 41.984L40.891 44.69C40.8243 44.8038 40.7808 44.9296 40.7629 45.0603C40.745 45.1909 40.7532 45.3238 40.7869 45.4513C40.8206 45.5788 40.8792 45.6984 40.9593 45.8032C41.0394 45.9079 41.1395 45.9958 41.2537 46.0618C41.3679 46.1277 41.494 46.1704 41.6248 46.1874C41.7556 46.2044 41.8884 46.1954 42.0157 46.1608C42.143 46.1263 42.2621 46.0669 42.3664 45.9861C42.4706 45.9053 42.5578 45.8046 42.623 45.69L44.181 42.99C44.5633 43.1075 44.961 43.1675 45.361 43.168C46.6983 43.103 47.977 42.5998 49 41.736V44.5L45.4 47.2Z" fill="#3B8686"/>
<path d="M23.03 23.242C23.084 23.4584 23.2088 23.6506 23.3845 23.7879C23.5603 23.9253 23.7769 23.9999 24 24H36C36.2231 23.9999 36.4397 23.9253 36.6155 23.7879C36.7912 23.6506 36.916 23.4584 36.97 23.242L38.97 15.242C39.018 15.0501 39.008 14.8482 38.9413 14.662C38.8746 14.4757 38.7541 14.3134 38.5951 14.1957C38.4362 14.0779 38.2458 14.01 38.0482 14.0004C37.8506 13.9908 37.6546 14.0401 37.485 14.142L33.155 16.742L30.707 14.294C30.5195 14.1065 30.2652 14.0012 30 14.0012C29.7348 14.0012 29.4805 14.1065 29.293 14.294L26.845 16.742L22.515 14.142C22.3454 14.0401 22.1494 13.9908 21.9518 14.0004C21.7542 14.01 21.5638 14.0779 21.4049 14.1957C21.2459 14.3134 21.1254 14.4757 21.0587 14.662C20.992 14.8482 20.982 15.0501 21.03 15.242L23.03 23.242ZM26.485 18.857C26.6762 18.9719 26.9004 19.0195 27.1218 18.9923C27.3433 18.9652 27.5492 18.8647 27.707 18.707L30 16.414L32.293 18.707C32.4508 18.8647 32.6568 18.9652 32.8782 18.9923C33.0996 19.0195 33.3238 18.9719 33.515 18.857L36.444 17.1L35.219 22H24.781L23.556 17.1L26.485 18.857Z" fill="#3B8686"/>
<path d="M30 21C30.5523 21 31 20.5523 31 20C31 19.4477 30.5523 19 30 19C29.4477 19 29 19.4477 29 20C29 20.5523 29.4477 21 30 21Z" fill="#3B8686"/>
<path d="M40 26H28C27.7348 26 27.4804 26.1054 27.2929 26.2929C27.1054 26.4804 27 26.7348 27 27C27 27.2652 27.1054 27.5196 27.2929 27.7071C27.4804 27.8946 27.7348 28 28 28H40C40.2652 28 40.5196 27.8946 40.7071 27.7071C40.8946 27.5196 41 27.2652 41 27C41 26.7348 40.8946 26.4804 40.7071 26.2929C40.5196 26.1054 40.2652 26 40 26Z" fill="#3B8686"/>
<path d="M17 32H29C29.2652 32 29.5196 31.8946 29.7071 31.7071C29.8946 31.5196 30 31.2652 30 31C30 30.7348 29.8946 30.4804 29.7071 30.2929C29.5196 30.1054 29.2652 30 29 30H17C16.7348 30 16.4804 30.1054 16.2929 30.2929C16.1054 30.4804 16 30.7348 16 31C16 31.2652 16.1054 31.5196 16.2929 31.7071C16.4804 31.8946 16.7348 32 17 32Z" fill="#3B8686"/>
<path d="M38 32C38.2652 32 38.5196 31.8946 38.7071 31.7071C38.8946 31.5196 39 31.2652 39 31C39 30.7348 38.8946 30.4804 38.7071 30.2929C38.5196 30.1054 38.2652 30 38 30H35C34.7348 30 34.4804 30.1054 34.2929 30.2929C34.1054 30.4804 34 30.7348 34 31C34 31.2652 34.1054 31.5196 34.2929 31.7071C34.4804 31.8946 34.7348 32 35 32H38Z" fill="#3B8686"/>
<path d="M17 36H23C23.2652 36 23.5196 35.8946 23.7071 35.7071C23.8946 35.5196 24 35.2652 24 35C24 34.7348 23.8946 34.4804 23.7071 34.2929C23.5196 34.1054 23.2652 34 23 34H17C16.7348 34 16.4804 34.1054 16.2929 34.2929C16.1054 34.4804 16 34.7348 16 35C16 35.2652 16.1054 35.5196 16.2929 35.7071C16.4804 35.8946 16.7348 36 17 36Z" fill="#3B8686"/>
<path d="M26 35C26 35.2652 26.1054 35.5196 26.2929 35.7071C26.4804 35.8946 26.7348 36 27 36H33C33.2652 36 33.5196 35.8946 33.7071 35.7071C33.8946 35.5196 34 35.2652 34 35C34 34.7348 33.8946 34.4804 33.7071 34.2929C33.5196 34.1054 33.2652 34 33 34H27C26.7348 34 26.4804 34.1054 26.2929 34.2929C26.1054 34.4804 26 34.7348 26 35Z" fill="#3B8686"/>
<path d="M39 34H37C36.7348 34 36.4804 34.1054 36.2929 34.2929C36.1054 34.4804 36 34.7348 36 35C36 35.2652 36.1054 35.5196 36.2929 35.7071C36.4804 35.8946 36.7348 36 37 36H39C39.2652 36 39.5196 35.8946 39.7071 35.7071C39.8946 35.5196 40 35.2652 40 35C40 34.7348 39.8946 34.4804 39.7071 34.2929C39.5196 34.1054 39.2652 34 39 34Z" fill="#3B8686"/>
<path d="M17 40H28C28.2652 40 28.5196 39.8946 28.7071 39.7071C28.8946 39.5196 29 39.2652 29 39C29 38.7348 28.8946 38.4804 28.7071 38.2929C28.5196 38.1054 28.2652 38 28 38H17C16.7348 38 16.4804 38.1054 16.2929 38.2929C16.1054 38.4804 16 38.7348 16 39C16 39.2652 16.1054 39.5196 16.2929 39.7071C16.4804 39.8946 16.7348 40 17 40Z" fill="#3B8686"/>
<path d="M38 38H32C31.7348 38 31.4804 38.1054 31.2929 38.2929C31.1054 38.4804 31 38.7348 31 39C31 39.2652 31.1054 39.5196 31.2929 39.7071C31.4804 39.8946 31.7348 40 32 40H38C38.2652 40 38.5196 39.8946 38.7071 39.7071C38.8946 39.5196 39 39.2652 39 39C39 38.7348 38.8946 38.4804 38.7071 38.2929C38.5196 38.1054 38.2652 38 38 38Z" fill="#3B8686"/>
<path d="M30 43C30 42.7348 29.8946 42.4804 29.7071 42.2929C29.5196 42.1054 29.2652 42 29 42H17C16.7348 42 16.4804 42.1054 16.2929 42.2929C16.1054 42.4804 16 42.7348 16 43C16 43.2652 16.1054 43.5196 16.2929 43.7071C16.4804 43.8946 16.7348 44 17 44H29C29.2652 44 29.5196 43.8946 29.7071 43.7071C29.8946 43.5196 30 43.2652 30 43Z" fill="#3B8686"/>
<path d="M38 42H34C33.7348 42 33.4804 42.1054 33.2929 42.2929C33.1054 42.4804 33 42.7348 33 43C33 43.2652 33.1054 43.5196 33.2929 43.7071C33.4804 43.8946 33.7348 44 34 44H38C38.2652 44 38.5196 43.8946 38.7071 43.7071C38.8946 43.5196 39 43.2652 39 43C39 42.7348 38.8946 42.4804 38.7071 42.2929C38.5196 42.1054 38.2652 42 38 42Z" fill="#3B8686"/>
<path d="M32 46H19C18.7348 46 18.4804 46.1054 18.2929 46.2929C18.1054 46.4804 18 46.7348 18 47C18 47.2652 18.1054 47.5196 18.2929 47.7071C18.4804 47.8946 18.7348 48 19 48H32C32.2652 48 32.5196 47.8946 32.7071 47.7071C32.8946 47.5196 33 47.2652 33 47C33 46.7348 32.8946 46.4804 32.7071 46.2929C32.5196 46.1054 32.2652 46 32 46Z" fill="#3B8686"/>
<path d="M38 46H36C35.7348 46 35.4804 46.1054 35.2929 46.2929C35.1054 46.4804 35 46.7348 35 47C35 47.2652 35.1054 47.5196 35.2929 47.7071C35.4804 47.8946 35.7348 48 36 48H38C38.2652 48 38.5196 47.8946 38.7071 47.7071C38.8946 47.5196 39 47.2652 39 47C39 46.7348 38.8946 46.4804 38.7071 46.2929C38.5196 46.1054 38.2652 46 38 46Z" fill="#3B8686"/>
<path d="M21 28H23C23.2652 28 23.5196 27.8946 23.7071 27.7071C23.8946 27.5196 24 27.2652 24 27C24 26.7348 23.8946 26.4804 23.7071 26.2929C23.5196 26.1054 23.2652 26 23 26H21C20.7348 26 20.4804 26.1054 20.2929 26.2929C20.1054 26.4804 20 26.7348 20 27C20 27.2652 20.1054 27.5196 20.2929 27.7071C20.4804 27.8946 20.7348 28 21 28Z" fill="#3B8686"/>
</svg>
