<?xml version="1.0" encoding="UTF-8" standalone="no"?> <svg width="512" height="512" viewBox="0 0 512 512" fill="none" xmlns="http://www.w3.org/2000/svg">
<path d="M232 231L144 247C110.08 224.39 120.1 189.8 128.9 171.44C130.664 167.758 133.513 164.704 137.062 162.688C140.612 160.672 144.694 159.79 148.76 160.16L209.85 165.71C213.984 166.088 217.898 167.741 221.051 170.441C224.204 173.141 226.44 176.754 227.45 180.78L232 231Z" fill="#D8D7DA"/>
<path d="M287.9 311.79H224.11L256 248L287.9 311.79Z" fill="#D8D7DA"/>
<path d="M368.38 247L280.38 231L284.93 180.78C285.936 176.754 288.169 173.14 291.321 170.439C294.473 167.739 298.387 166.086 302.52 165.71L363.62 160.16C367.684 159.789 371.765 160.671 375.314 162.687C378.862 164.704 381.709 167.758 383.47 171.44C392.27 189.8 402.29 224.39 368.38 247Z" fill="#D8D7DA"/>
<path d="M408 160L392 184L406.93 157.87L408 160Z" fill="#D8D7DA"/>
<path d="M440 200C439.995 170.774 433.029 141.97 419.677 115.972C406.326 89.9736 386.973 67.53 363.222 50.4992C339.471 33.4684 312.005 22.3402 283.098 18.0361C254.19 13.732 224.674 16.3758 196.991 25.7485C169.309 35.1213 144.258 50.9534 123.911 71.9339C103.565 92.9145 88.509 118.44 79.9901 146.397C71.4712 174.354 69.7344 203.938 74.9235 232.699C80.1126 261.461 92.0784 288.573 109.83 311.79L96 336V344C96 349.253 97.0346 354.454 99.0448 359.307C101.055 364.16 104.001 368.57 107.716 372.284C111.43 375.999 115.84 378.945 120.693 380.955C125.546 382.965 130.747 384 136 384V456C136 466.609 140.214 476.783 147.716 484.284C155.217 491.786 165.391 496 176 496H336C346.609 496 356.783 491.786 364.284 484.284C371.786 476.783 376 466.609 376 456V384C381.253 384 386.454 382.965 391.307 380.955C396.16 378.945 400.57 375.999 404.284 372.284C407.999 368.57 410.945 364.16 412.955 359.307C414.965 354.454 416 349.253 416 344V336L402.17 311.79C426.765 279.719 440.066 240.416 440 200ZM406.93 157.87L408 160L392 184L406.93 157.87ZM144 247C110.08 224.39 120.1 189.8 128.9 171.44C130.664 167.758 133.513 164.704 137.063 162.688C140.613 160.672 144.694 159.79 148.76 160.16L209.85 165.71C213.984 166.088 217.898 167.741 221.051 170.441C224.204 173.141 226.44 176.754 227.45 180.78L232 231L144 247ZM224 312L224.11 311.79L256 248L287.9 311.79L288 312H224ZM280.38 231L284.93 180.78C285.936 176.753 288.17 173.14 291.321 170.439C294.473 167.739 298.387 166.086 302.52 165.71L363.62 160.16C367.685 159.789 371.765 160.67 375.314 162.687C378.863 164.703 381.709 167.758 383.47 171.44C392.27 189.8 402.29 224.39 368.38 247L280.38 231Z" fill="#D8D7DA"/>
<path d="M288 312H224L224.11 311.79L256 248L287.9 311.79L288 312Z" fill="#8034AD"/>
<path d="M232 231L144 247C110.08 224.39 120.1 189.8 128.9 171.44C130.664 167.758 133.513 164.704 137.062 162.688C140.612 160.672 144.694 159.79 148.76 160.16L209.85 165.71C213.984 166.088 217.898 167.741 221.051 170.441C224.204 173.141 226.44 176.754 227.45 180.78L232 231Z" fill="#8034AD"/>
<path d="M368.38 247L280.38 231L284.93 180.78C285.936 176.754 288.169 173.14 291.321 170.439C294.473 167.739 298.387 166.086 302.52 165.71L363.62 160.16C367.684 159.789 371.765 160.671 375.314 162.687C378.862 164.704 381.709 167.758 383.47 171.44C392.27 189.8 402.29 224.39 368.38 247Z" fill="#8034AD"/>
<path d="M408 160L392 184L406.93 157.87L408 160Z" fill="#D8D7DA"/>
<path d="M411.71 312.36C435.422 279.706 448.131 240.355 448 200C448 94.13 361.87 8 256 8C150.13 8 64 94.13 64 200C63.8686 240.355 76.5781 279.706 100.29 312.36L89.05 332.03C88.3613 333.24 87.9994 334.608 88 336V344C88.0158 355.338 92.0389 366.306 99.3585 374.965C106.678 383.624 116.823 389.417 128 391.32V456C128.014 468.726 133.075 480.927 142.074 489.926C151.073 498.925 163.274 503.986 176 504H336C348.726 503.986 360.927 498.925 369.926 489.926C378.925 480.927 383.987 468.726 384 456V391.32C395.177 389.417 405.322 383.624 412.642 374.965C419.961 366.306 423.984 355.338 424 344V336C424.001 334.608 423.639 333.24 422.95 332.03L411.71 312.36ZM377.05 283.97L408 338.12V344C407.989 352.484 404.614 360.616 398.615 366.615C392.616 372.614 384.484 375.989 376 376H352C349.878 376 347.843 376.843 346.343 378.343C344.843 379.843 344 381.878 344 384C344 386.122 344.843 388.157 346.343 389.657C347.843 391.157 349.878 392 352 392H368V456C367.989 464.484 364.614 472.616 358.615 478.615C352.616 484.614 344.484 487.989 336 488H176C167.517 487.989 159.384 484.614 153.385 478.615C147.386 472.616 144.011 464.484 144 456V392H160C162.122 392 164.157 391.157 165.657 389.657C167.157 388.157 168 386.122 168 384C168 381.878 167.157 379.843 165.657 378.343C164.157 376.843 162.122 376 160 376H136C127.517 375.989 119.384 372.614 113.385 366.615C107.386 360.616 104.011 352.484 104 344V338.12L134.95 283.97C136.003 282.127 136.28 279.941 135.722 277.893C135.163 275.845 133.813 274.103 131.97 273.05C130.127 271.997 127.941 271.72 125.893 272.278C123.845 272.837 122.103 274.187 121.05 276.03L109.09 296.97C88.5816 265.898 78.4624 229.12 80.1893 191.93C81.9163 154.74 95.4003 119.058 118.7 90.02L138.34 109.66C139.319 110.635 140.533 111.34 141.864 111.708C143.196 112.076 144.6 112.094 145.94 111.76L172.47 105.13L185.34 124.44C185.923 125.315 186.673 126.066 187.546 126.651C188.419 127.236 189.4 127.643 190.43 127.849C191.461 128.055 192.522 128.056 193.553 127.852C194.585 127.648 195.565 127.243 196.44 126.66C197.315 126.077 198.066 125.327 198.651 124.454C199.236 123.581 199.643 122.601 199.849 121.57C200.055 120.539 200.056 119.478 199.852 118.447C199.648 117.415 199.243 116.435 198.66 115.56L182.66 91.56C181.743 90.1882 180.425 89.1331 178.886 88.5388C177.346 87.9446 175.661 87.8402 174.06 88.24L146.45 95.14L129.29 77.98C148.725 57.764 172.712 42.489 199.251 33.4295C225.79 24.37 254.111 21.7886 281.85 25.9009C309.59 30.0131 335.943 40.6996 358.713 57.0689C381.482 73.4381 400.006 95.0152 412.74 120H392C390.636 119.999 389.294 120.347 388.102 121.011C386.91 121.675 385.907 122.632 385.19 123.793C384.472 124.953 384.064 126.278 384.002 127.641C383.941 129.004 384.229 130.36 384.84 131.58L398.77 159.42L391.66 170.09C391.34 169.39 391.02 168.69 390.69 167.99C388.205 162.848 384.215 158.583 379.25 155.761C374.285 152.939 368.579 151.694 362.89 152.19L301.8 157.75C296.014 158.276 290.535 160.589 286.122 164.368C281.709 168.147 278.581 173.204 277.17 178.84C277.07 179.241 277 179.649 276.96 180.06L272.41 230.28C272.229 232.269 272.798 234.253 274.007 235.843C275.215 237.433 276.975 238.513 278.94 238.87L366.94 254.87C367.415 254.958 367.897 255.001 368.38 255C369.956 255 371.498 254.533 372.81 253.66C395.42 238.59 404.14 215.71 398.16 189.09C398.33 188.88 398.5 188.67 398.66 188.44L414.66 164.44C415.441 163.265 415.899 161.905 415.986 160.497C416.074 159.089 415.789 157.683 415.16 156.42L404.94 136H419.95C430.19 162.238 433.986 190.55 431.021 218.559C428.056 246.568 418.416 273.457 402.91 296.97L390.95 276.03C390.429 275.117 389.733 274.316 388.902 273.673C388.071 273.029 387.121 272.555 386.107 272.278C385.093 272.002 384.035 271.927 382.992 272.06C381.949 272.192 380.943 272.529 380.03 273.05C379.117 273.571 378.316 274.267 377.673 275.098C377.029 275.929 376.555 276.879 376.278 277.893C376.002 278.907 375.927 279.965 376.06 281.008C376.192 282.051 376.529 283.057 377.05 283.97V283.97ZM366.51 238.53L289 224.44L292.83 182.2C293.52 179.903 294.88 177.864 296.737 176.346C298.594 174.828 300.862 173.9 303.25 173.68L364.34 168.13C366.779 167.915 369.226 168.448 371.355 169.657C373.484 170.867 375.195 172.695 376.26 174.9C385.44 194.04 390.94 220.32 366.51 238.53V238.53Z" fill="black"/>
<path d="M217.194 316.206C217.911 317.366 218.913 318.324 220.104 318.988C221.295 319.652 222.636 320 224 320H288C289.364 320 290.705 319.651 291.896 318.987C293.087 318.323 294.088 317.366 294.805 316.206C295.522 315.046 295.93 313.722 295.992 312.359C296.053 310.997 295.765 309.642 295.155 308.422L263.155 244.422C262.49 243.093 261.469 241.976 260.205 241.195C258.942 240.414 257.486 240 256 240C254.514 240 253.058 240.414 251.795 241.195C250.531 241.976 249.51 243.093 248.845 244.422L216.845 308.422C216.235 309.642 215.947 310.997 216.008 312.359C216.069 313.722 216.477 315.046 217.194 316.206ZM256 265.889L275.056 304H236.944L256 265.889Z" fill="black"/>
<path d="M344 400C344 397.878 343.157 395.843 341.657 394.343C340.157 392.843 338.122 392 336 392C333.878 392 331.843 392.843 330.343 394.343C328.843 395.843 328 397.878 328 400V408H312V400C312 397.878 311.157 395.843 309.657 394.343C308.157 392.843 306.122 392 304 392C301.878 392 299.843 392.843 298.343 394.343C296.843 395.843 296 397.878 296 400V408H280V400C280 397.878 279.157 395.843 277.657 394.343C276.157 392.843 274.122 392 272 392C269.878 392 267.843 392.843 266.343 394.343C264.843 395.843 264 397.878 264 400V408H248V400C248 397.878 247.157 395.843 245.657 394.343C244.157 392.843 242.122 392 240 392C237.878 392 235.843 392.843 234.343 394.343C232.843 395.843 232 397.878 232 400V408H216V400C216 397.878 215.157 395.843 213.657 394.343C212.157 392.843 210.122 392 208 392C205.878 392 203.843 392.843 202.343 394.343C200.843 395.843 200 397.878 200 400V408H184V400C184 397.878 183.157 395.843 181.657 394.343C180.157 392.843 178.122 392 176 392C173.878 392 171.843 392.843 170.343 394.343C168.843 395.843 168 397.878 168 400V408H160C157.878 408 155.843 408.843 154.343 410.343C152.843 411.843 152 413.878 152 416C152 418.122 152.843 420.157 154.343 421.657C155.843 423.157 157.878 424 160 424H168V432C168 434.122 168.843 436.157 170.343 437.657C171.843 439.157 173.878 440 176 440C178.122 440 180.157 439.157 181.657 437.657C183.157 436.157 184 434.122 184 432V424H200V432C200 434.122 200.843 436.157 202.343 437.657C203.843 439.157 205.878 440 208 440C210.122 440 212.157 439.157 213.657 437.657C215.157 436.157 216 434.122 216 432V424H232V432C232 434.122 232.843 436.157 234.343 437.657C235.843 439.157 237.878 440 240 440C242.122 440 244.157 439.157 245.657 437.657C247.157 436.157 248 434.122 248 432V424H264V432C264 434.122 264.843 436.157 266.343 437.657C267.843 439.157 269.878 440 272 440C274.122 440 276.157 439.157 277.657 437.657C279.157 436.157 280 434.122 280 432V424H296V432C296 434.122 296.843 436.157 298.343 437.657C299.843 439.157 301.878 440 304 440C306.122 440 308.157 439.157 309.657 437.657C311.157 436.157 312 434.122 312 432V424H328V432C328 434.122 328.843 436.157 330.343 437.657C331.843 439.157 333.878 440 336 440C338.122 440 340.157 439.157 341.657 437.657C343.157 436.157 344 434.122 344 432V424H352C354.122 424 356.157 423.157 357.657 421.657C359.157 420.157 360 418.122 360 416C360 413.878 359.157 411.843 357.657 410.343C356.157 408.843 354.122 408 352 408H344V400Z" fill="black"/>
<path d="M239.968 230.277L235.413 180.059C235.376 179.648 235.306 179.241 235.206 178.841C233.793 173.206 230.664 168.15 226.252 164.371C221.84 160.592 216.363 158.277 210.578 157.747L149.478 152.192C143.791 151.695 138.087 152.939 133.123 155.76C128.16 158.581 124.171 162.844 121.687 167.984C104.657 203.504 111.172 234.73 139.561 253.656C141.286 254.806 143.39 255.242 145.43 254.871L233.43 238.871C235.396 238.514 237.158 237.434 238.368 235.844C239.578 234.253 240.149 232.267 239.968 230.277ZM145.868 238.53C121.438 220.318 126.943 194.041 136.12 174.901C137.105 172.861 138.644 171.14 140.561 169.933C142.479 168.726 144.697 168.084 146.962 168.078C147.318 168.078 147.677 168.094 148.035 168.126L209.135 173.681C211.522 173.9 213.79 174.828 215.645 176.346C217.501 177.864 218.86 179.902 219.547 182.199L223.378 224.438L145.868 238.53Z" fill="black"/>
<path d="M312 104C313.051 104.001 314.092 103.795 315.062 103.393C316.033 102.991 316.915 102.401 317.657 101.657L341.657 77.657C343.157 76.1566 344 74.1217 344 72C344 69.8782 343.157 67.8433 341.657 66.343C340.157 64.8426 338.122 63.9998 336 63.9998C333.878 63.9998 331.843 64.8426 330.343 66.343L306.343 90.343C305.224 91.4618 304.462 92.8873 304.153 94.4392C303.845 95.991 304.003 97.5996 304.609 99.0615C305.214 100.523 306.24 101.773 307.555 102.652C308.871 103.531 310.418 104 312 104Z" fill="black"/>
</svg>
