<?xml version="1.0" encoding="iso-8859-1"?>
<!-- Generator: Adobe Illustrator 21.0.0, SVG Export Plug-In . SVG Version: 6.00 Build 0)  -->
<svg version="1.1" id="Capa_1" xmlns="http://www.w3.org/2000/svg" xmlns:xlink="http://www.w3.org/1999/xlink" x="0px" y="0px"
	 viewBox="0 0 512 512" style="enable-background:new 0 0 512 512;" xml:space="preserve">
<g id="XMLID_905_">
	<g id="XMLID_906_">
		<path id="XMLID_907_" style="fill:#F1DD47;" d="M478.634,229.934c0,52.385-18.111,100.547-48.413,138.552
			c-40.753,51.116-103.556,83.88-174.02,83.88c-70.004,0-132.446-32.337-173.221-82.884
			c-30.783-38.159-49.212-86.703-49.212-139.548c0-122.849,99.584-222.433,222.432-222.433S478.634,107.086,478.634,229.934z"/>
		<path id="XMLID_908_" style="fill:#EFC40F;" d="M430.221,368.487c-40.753,51.116-103.556,83.88-174.02,83.88
			c-70.004,0-132.446-32.337-173.221-82.884c26.515-48.304,29.47-87.305,29.787-96.64v-81.341
			c0-79.218,64.445-143.663,143.663-143.663c79.218,0,143.663,64.445,143.663,143.663v80.925
			C401.452,286.161,407.142,324.462,430.221,368.487z"/>
		<path id="XMLID_909_" style="fill:#EBEEF2;" d="M446.836,418.723c-48.185-62.657-57.973-125.461-59.874-145.666V191.5
			c0-72.089-58.44-130.529-130.529-130.529h0c-72.089,0-130.529,58.44-130.529,130.529v81.558
			c-0.454,14.463-6.027,77.199-59.741,145.445c-9.757,12.397-0.895,30.591,14.881,30.591h48.621
			c20.723,0,40.303,8.933,54.374,24.147c17.78,19.223,43.218,31.259,71.468,31.259h1.448c28.25,0,53.688-12.036,71.468-31.259
			c14.071-15.214,33.651-24.147,54.374-24.147h48.981C447.428,449.094,456.375,431.128,446.836,418.723z"/>
		<path id="XMLID_910_" style="fill:#D3D8DF;" d="M431.783,449.092H407.19c15.645,0,24.594-17.963,15.049-30.373
			c-48.185-62.657-57.975-125.456-59.867-145.661v-81.556c0-67.945-51.921-123.763-118.239-129.959
			c4.049-0.388,8.154-0.577,12.297-0.577c72.088,0,130.536,58.448,130.536,130.536v81.556
			c1.892,20.205,11.682,83.004,59.867,145.661C456.377,431.13,447.429,449.092,431.783,449.092z"/>
	</g>
	<g id="XMLID_911_">
		<path id="XMLID_912_" d="M478.428,241.858c-4.117-0.354-7.762,2.7-8.117,6.827c-3.751,43.41-20.198,83.731-47.708,117.275
			c-21.506-43.047-26.862-79.98-28.142-93.258V191.5c0-76.109-61.92-138.029-138.029-138.029S118.403,115.39,118.403,191.5v20.17
			c0,4.142,3.357,7.5,7.5,7.5c4.143,0,7.5-3.358,7.5-7.5V191.5c0-67.838,55.19-123.029,123.029-123.029
			s123.029,55.19,123.029,123.029v81.558c0,0.234,0.011,0.469,0.033,0.702c1.752,18.629,11.358,84.47,61.396,149.536
			c2.68,3.484,3.114,7.931,1.162,11.894c-1.975,4.011-5.815,6.405-10.272,6.405h-48.981c-22.446,0-44.271,9.679-59.88,26.554
			C305.959,486.484,281.917,497,256.956,497h-1.448c-24.961,0-49.003-10.516-65.962-28.852
			c-15.609-16.875-37.435-26.554-59.88-26.554H81.045c-4.478,0-8.32-2.407-10.277-6.439c-1.951-4.018-1.469-8.508,1.289-12.013
			c56.152-71.344,60.951-137.343,61.343-149.849c0.003-0.078,0.004-0.157,0.004-0.235V244.33c0-4.142-3.357-7.5-7.5-7.5
			c-4.143,0-7.5,3.358-7.5,7.5v28.608c-0.298,9.101-3.074,46.866-27.729,94.094c-31.922-38.499-49.405-86.824-49.405-137.099
			c0-53.804,19.982-105.292,56.267-144.979c2.795-3.057,2.583-7.801-0.475-10.596c-3.056-2.795-7.801-2.583-10.596,0.475
			c-38.818,42.458-60.196,97.54-60.196,155.1c0,55.719,20.077,109.197,56.605,151.072c-6.34,10.659-13.803,21.676-22.605,32.859
			c-6.3,8.004-7.448,18.672-2.996,27.841c4.459,9.184,13.567,14.888,23.771,14.888h48.621c18.277,0,36.089,7.924,48.868,21.739
			C198.322,499.729,226.379,512,255.508,512h1.448c29.129,0,57.185-12.271,76.975-33.667c12.778-13.816,30.59-21.74,48.868-21.74
			h48.981c10.147,0,19.24-5.662,23.729-14.777c4.466-9.068,3.421-19.669-2.729-27.666c-8.762-11.394-16.217-22.801-22.564-33.941
			c31.841-36.802,50.845-81.715,55.038-130.235C485.612,245.849,482.555,242.214,478.428,241.858z"/>
		<path id="XMLID_913_" d="M120.492,63.269C158.671,32.142,206.867,15,256.202,15c113.637,0,207.874,88.777,214.541,202.11
			c0.234,3.985,3.54,7.06,7.48,7.06c0.148,0,0.298-0.004,0.447-0.013c4.135-0.243,7.29-3.792,7.047-7.927
			C478.585,94.979,377.769,0,256.202,0c-52.778,0-104.341,18.34-145.188,51.643c-3.21,2.617-3.691,7.342-1.073,10.552
			C112.558,65.406,117.284,65.884,120.492,63.269z"/>
		<path id="XMLID_914_" d="M231.234,200.168v-8.981c0-4.142-3.357-7.5-7.5-7.5s-7.5,3.358-7.5,7.5v8.981c0,4.142,3.357,7.5,7.5,7.5
			S231.234,204.311,231.234,200.168z"/>
		<path id="XMLID_915_" d="M296.23,200.168v-8.981c0-4.142-3.357-7.5-7.5-7.5s-7.5,3.358-7.5,7.5v8.981c0,4.142,3.357,7.5,7.5,7.5
			S296.23,204.311,296.23,200.168z"/>
	</g>
</g>
<g>
</g>
<g>
</g>
<g>
</g>
<g>
</g>
<g>
</g>
<g>
</g>
<g>
</g>
<g>
</g>
<g>
</g>
<g>
</g>
<g>
</g>
<g>
</g>
<g>
</g>
<g>
</g>
<g>
</g>
</svg>
