<?xml version="1.0" encoding="iso-8859-1"?>
<!-- Generator: Adobe Illustrator 19.0.0, SVG Export Plug-In . SVG Version: 6.00 Build 0)  -->
<svg version="1.1" id="Capa_1" xmlns="http://www.w3.org/2000/svg" xmlns:xlink="http://www.w3.org/1999/xlink" x="0px" y="0px"
	 viewBox="0 0 512 512" style="enable-background:new 0 0 512 512;" xml:space="preserve">
<g>
	<path style="fill:#FFD15C;" d="M256,512c-112,0-202.667-90.667-202.667-202.667S144,106.667,256,106.667
		s202.667,90.667,202.667,202.667S368,512,256,512z M256,155.733c-85.333,0-154.667,68.267-154.667,153.6S170.667,464,256,464
		s154.667-69.333,154.667-154.667S341.333,155.733,256,155.733z"/>
	<path style="fill:#FFD15C;" d="M218.667,41.6L218.667,41.6L218.667,41.6z"/>
</g>
<polygon style="fill:#66C6B9;" points="360.533,41.6 256,155.733 150.4,41.6 "/>
<g>
	<polygon style="fill:#4ABAA5;" points="151.467,41.6 218.667,41.6 218.667,41.6 180.267,0 	"/>
	<polygon style="fill:#4ABAA5;" points="331.733,0 293.333,41.6 293.333,41.6 361.6,41.6 	"/>
</g>
<g>
	<polygon style="fill:#66C6B9;" points="180.267,0 218.667,41.6 256,0 	"/>
	<polygon style="fill:#66C6B9;" points="331.733,0 256,0 293.333,41.6 	"/>
</g>
<polygon style="fill:#4ABAA5;" points="218.667,41.6 293.333,41.6 256,0 "/>
<polygon style="fill:#8AD7F8;" points="218.667,41.6 293.333,41.6 256,155.733 "/>
<g>
</g>
<g>
</g>
<g>
</g>
<g>
</g>
<g>
</g>
<g>
</g>
<g>
</g>
<g>
</g>
<g>
</g>
<g>
</g>
<g>
</g>
<g>
</g>
<g>
</g>
<g>
</g>
<g>
</g>
</svg>
