<?xml version="1.0" encoding="utf-8"?>
<!-- Generator: Adobe Illustrator 24.0.2, SVG Export Plug-In . SVG Version: 6.00 Build 0)  -->
<svg version="1.1" id="Layer_1" xmlns="http://www.w3.org/2000/svg" xmlns:xlink="http://www.w3.org/1999/xlink" x="0px" y="0px"
	 viewBox="0 0 512 512" style="enable-background:new 0 0 512 512;" xml:space="preserve">
<style type="text/css">
	.st0{fill:#DCC4AB;}
	.st1{fill:#E9DACD;}
	.st2{fill:#F37923;}
	.st3{fill:#F05B26;}
	.st4{fill:#F28B20;}
	.st5{fill:#E3523E;}
	.st6{fill:#B63026;}
</style>
<g id="XMLID_4073_">
	<rect id="XMLID_4094_" x="184.6111" y="245.881" class="st0" width="140.8526" height="177.6293"/>
	<ellipse id="XMLID_4093_" class="st0" cx="255.0376" cy="423.5103" rx="70.4266" ry="15.5005"/>
	<path id="XMLID_4092_" class="st1" d="M202.6792,276.451c0,0,22.0525-7.8852,20.9368,14.6305
		c-0.1772,3.5756,0.9334,7.135,3.4245,9.8577c5.2148,5.7012,15.3645,10.0259,28.1564-17.9825c0,0,8.6202-17.2223,23.3907,6.1241
		c0,0,15.3696,16.0744,19.7889-12.2471c0,0,4.6641-13.8411,13.8401-3.5504c2.4972,2.7992,3.938,6.2761,4.3509,9.897
		c0.5588,4.9087,2.4498,12.8644,8.7562,15.6354v-39.6413l0.14-13.2933l-140.7902-1.1962
		C184.6735,244.6848,181.5067,283.0192,202.6792,276.451z"/>
	<path id="XMLID_4091_" class="st1" d="M325.4637,245.881c0,11.2795-31.5306,20.4223-70.4258,20.4223
		s-70.4268-9.1428-70.4268-20.4223c0-11.2775,31.5316-20.4213,70.4268-20.4213S325.4637,234.6036,325.4637,245.881z"/>
	<path id="XMLID_4090_" class="st0" d="M303.8905,245.3292c0,5.5159-22.4845,9.9876-50.22,9.9876s-50.219-4.4717-50.219-9.9876
		c0-5.5149,22.4835-9.9866,50.219-9.9866S303.8905,239.8144,303.8905,245.3292z"/>
	<path id="XMLID_4089_" class="st2" d="M338.2334,164.215c-0.5286-23.5347-13.6377-42.2785-29.5198-60.115
		c-26.1235-29.6567-59.5209-55.9796-57.0862-100.1651c0,0-0.0705,0.0735-0.1732,0.1812c-9.176,9.31-15.7724,18.6833-19.7769,28.3971
		c-3.4859,7.4713-5.7122,15.5106-4.6328,22.9456c-0.0151,4.7295,0.5014,9.5728,1.5698,14.56
		c2.1226,10.0329,4.5493,20.0095,3.6722,30.1028c-0.2759,3.1688-0.868,6.3486-1.9091,9.5466
		c-1.4117,4.216-2.1649,9.4328-8.8146,9.4328c-6.6044,0-7.2438-5.4172-8.7501-9.4962c-4.0085-11.4194-1.3483-23.2145-2.5324-38.2387
		c-5.4172,6.835-10.3773,13.6377-14.8359,20.4616c-6.4684,9.903-11.8716,19.8504-16.0694,30.0011
		c-6.0224,14.56-9.5597,29.5389-10.1558,45.408c-0.6726,17.2998,4.4234,32.0915,15.8831,43.7183
		c2.0229,2.037,4.2482,3.9773,6.6648,5.82c4.4949,3.4276,9.6825,6.4986,15.6757,9.1096c9.9846,4.2693,20.0799,6.9709,30.4029,8.1973
		h14.5822h12.0196c7.2126-0.8811,14.4895-2.3159,21.6689-4.4788c15.6737-4.7446,27.6137-11.8041,36.2672-20.819
		C333.2351,197.2207,338.6503,182.4281,338.2334,164.215z"/>
	<path id="XMLID_4088_" class="st3" d="M338.2465,164.215c-0.5286-23.5347-13.6377-42.2785-29.5198-60.115
		c-26.1234-29.6567-59.5209-55.9796-57.0862-100.1651c-16.2919,16.4712-24.5235,33.1266-24.5829,51.524
		c11.6108,19.792,29.7604,36.2843,45.3284,53.9587c15.8831,17.8375,28.9922,36.5803,29.5198,60.115
		c0.4168,18.2141-4.9984,33.0068-15.8489,44.5692c-8.1591,8.4994-19.2412,15.2588-33.616,19.9803h12.0196
		c7.2126-0.8811,14.4895-2.3159,21.6689-4.4788c15.6727-4.7446,27.6137-11.8041,36.2672-20.819
		C333.2482,197.2207,338.6634,182.4281,338.2465,164.215z"/>
	<path id="XMLID_4087_" class="st4" d="M232.2997,100.1217c-0.2759,3.1688-0.868,6.3486-1.9101,9.5466
		c-1.4107,4.216-2.1639,9.4328-8.8146,9.4328c-6.6034,0-7.2438-5.4172-8.7501-9.4962c-4.0075-11.4194-1.3473-23.2145-2.5314-38.2387
		c-5.4172,6.835-10.3773,13.6377-14.8359,20.4616c-6.4684,9.903-11.8716,19.8504-16.0694,30.0011
		c-6.0224,14.56-9.5597,29.5389-10.1558,45.408c-0.6726,17.2998,4.4224,32.0915,15.8821,43.7183
		c2.0239,2.037,4.2492,3.9773,6.6658,5.82C286.502,205.1945,258.1633,139.1015,232.2997,100.1217z"/>
	<path id="XMLID_4086_" class="st2" d="M301.9059,169.5325c-0.5276-23.5347-13.6367-42.2774-29.5198-60.115
		c0,0-49.2171-55.5124-20.7455-105.4826c0,0-27.9037,28.6428-24.5829,51.524l3.2584,5.1907
		c-1.1277-1.7097-2.2273-3.4336-3.2584-5.1907c-0.0151,4.7295,0.5014,9.5728,1.5698,14.56
		c2.1216,10.0329,4.5493,20.0095,3.6722,30.1028c25.8637,38.9798,54.2024,105.0728-40.5193,116.6534
		c4.4949,3.4276,9.6825,6.4986,15.6747,9.1096c9.9856,4.2693,20.0809,6.9709,30.4039,8.1973h14.5822
		c14.3747-4.7214,25.4569-11.4809,33.616-19.9803C296.9075,202.5393,302.3227,187.7467,301.9059,169.5325z"/>
	<path id="XMLID_4085_" class="st1" d="M267.5096,244.0454c0,2.4428-6.7071,4.4224-14.9799,4.4224
		c-8.2738,0-14.9809-1.9796-14.9809-4.4224c0-2.4418,6.7071-4.4224,14.9809-4.4224
		C260.8025,239.623,267.5096,241.6037,267.5096,244.0454z"/>
	<path id="XMLID_4084_" class="st1" d="M238.9352,316.3481c0,2.8727-2.2706,5.2007-5.0718,5.2007
		c-2.8002,0-5.0708-2.328-5.0708-5.2007c0-2.8717,2.2706-5.2007,5.0708-5.2007
		C236.6646,311.1474,238.9352,313.4764,238.9352,316.3481z"/>
	<path id="XMLID_4083_" class="st1" d="M239.0943,344.0857c0,9.7107-2.3421,17.5828-5.2309,17.5828
		c-2.8889,0-5.2309-7.8721-5.2309-17.5828c0-9.7117,2.3421-17.5838,5.2309-17.5838
		C236.7522,326.5019,239.0943,334.374,239.0943,344.0857z"/>
	<path id="XMLID_4082_" class="st1" d="M292.5586,313.0887c0,8.3484-1.7601,15.1169-3.932,15.1169
		c-2.1709,0-3.931-6.7685-3.931-15.1169c0-8.3494,1.7601-15.1169,3.931-15.1169
		C290.7985,297.9719,292.5586,304.7394,292.5586,313.0887z"/>
	<path id="XMLID_4081_" class="st1" d="M236.0998,374.8661c0,4.7486-1.0009,8.597-2.2364,8.597
		c-1.2345,0-2.2354-3.8484-2.2354-8.597c0-4.7476,1.0009-8.5971,2.2354-8.5971
		C235.0989,366.2691,236.0998,370.1185,236.0998,374.8661z"/>
	<ellipse id="XMLID_4080_" class="st1" cx="288.6266" cy="342.6387" rx="2.2364" ry="8.5971"/>
	<path id="XMLID_4079_" class="st1" d="M194.0157,288.5461c0,4.7476-1.0009,8.596-2.2354,8.596s-2.2364-3.8484-2.2364-8.596
		c0-4.7486,1.0019-8.5971,2.2364-8.5971S194.0157,283.7975,194.0157,288.5461z"/>
	<path id="XMLID_4076_" class="st5" d="M364.1676,486.9914c-6.9055-6.7121-16.3715-11.0016-27.3418-11.0016h-34.6793
		c-9.5154,0-17.2636-7.5529-17.2636-16.9182c0-9.3643,7.7482-16.9907,17.2636-16.9907h5.384h0.0574
		c12.3277,0,22.3224-9.9947,22.3224-22.3224V375.714c-87.2534,35.083-146.9052,0-146.9052,0v44.0446
		c0,12.3277,9.9947,22.3224,22.3223,22.3224h5.4504c9.5184,0,17.1951,7.6264,17.1951,16.9907
		c0,9.3653-7.6767,16.9182-17.1951,16.9182h-36.0174c-10.9714,0-20.4364,4.2895-27.3418,11.0016
		c-7.6737,7.4592-2.2907,20.4938,8.4098,20.4938h199.9295C366.4593,507.4852,371.8403,494.4507,364.1676,486.9914z"/>
	<path id="XMLID_4075_" class="st6" d="M183.005,375.714v11.783c0,0,56.6612,33.9029,146.9052,0v-11.783H183.005z"/>
	<path id="XMLID_4074_" class="st5" d="M329.6816,323.6634c-1.456-0.58-2.9059-1.0965-4.4999-1.6765
		c-1.3231,1.2254-2.6472,2.3874-4.1082,3.4839c-8.148,6.0042-18.2091,10.9754-30.5287,14.5953
		c-7.8076,2.2635-15.6244,3.8041-23.3756,4.6519h-28.676c-11.1274-1.2969-22.121-4.071-32.8517-8.591
		c-6.0909-2.5757-11.2604-5.5552-15.8871-8.9102c-2.0602-1.4258-3.9068-2.9724-5.7686-4.5905
		c-0.8599,0.3283-1.6544,0.7099-2.5173,1.0371c-15.8237,6.3929-25.8878,15.6284-25.8878,26.0258
		c0,10.3984,10.0641,19.6983,25.8878,26.0248c0,0,60.1834,35.083,148.2132,0c15.8288-6.3264,25.9019-15.6263,25.9019-26.0248
		C355.5836,339.2917,345.5104,330.0563,329.6816,323.6634z"/>
</g>
</svg>
