<?xml version="1.0" encoding="UTF-8" standalone="no"?> <svg id="Layer_1" data-name="Layer 1" xmlns="http://www.w3.org/2000/svg" viewBox="0 0 512 512"><defs><style>.cls-1{fill:#199cf4;}.cls-2{fill:#29d5fb;}.cls-3{fill:#15bdf9;}.cls-4{opacity:0.1;}.cls-5{fill:#231f20;}</style></defs><title>diamond-flat</title><polygon class="cls-1" points="415.13 122.46 352.35 251.68 255.81 122.46 415.13 122.46"/><polygon class="cls-2" points="494.53 251.55 352.35 251.68 415.13 122.46 494.53 251.55"/><polygon class="cls-1" points="255.81 122.46 159.13 251.88 96.48 122.46 255.81 122.46"/><polygon class="cls-2" points="159.13 251.88 17.47 252 96.48 122.46 159.13 251.88"/><polygon class="cls-3" points="255.81 512 17.47 252 159.13 251.88 255.81 512"/><polygon class="cls-3" points="494.53 251.55 255.81 512 352.35 251.68 494.53 251.55"/><polygon class="cls-3" points="352.35 251.68 159.13 251.88 255.81 122.46 255.81 122.46 352.35 251.68"/><polygon class="cls-1" points="352.35 251.68 255.81 512 159.13 251.88 352.35 251.68"/><rect class="cls-3" x="236.47" width="38.67" height="90.23"/><rect class="cls-3" x="123.68" y="19.2" width="38.67" height="77.61" transform="translate(4.65 126.36) rotate(-48.37)"/><rect class="cls-3" x="329.79" y="38.67" width="77.61" height="38.67" transform="translate(54.57 259.54) rotate(-41.64)"/><g class="cls-4"><polygon class="cls-5" points="494.53 251.55 255.81 512 255.81 122.46 415.13 122.46 494.53 251.55"/></g></svg>